<svg width="181" height="180" viewBox="0 0 181 180" fill="none" xmlns="http://www.w3.org/2000/svg">
<path d="M90.5017 180C105.35 180 119.344 176.382 131.689 170.014C130.819 166.237 128.239 156.432 123.723 150.464C116.119 140.416 73.9321 137.424 64.1547 148.83C59.0744 154.757 55.3016 167.242 53.9386 172.236C65.1153 177.212 77.4802 180 90.5017 180Z" fill="#D2580F"/>
<path d="M72.4191 143.96C75.5896 152.809 82.7633 169.89 92.4499 175.137C92.4499 175.137 108.722 163.263 113.219 144.567C101.496 140.963 83.6226 140.289 72.4191 143.96Z" fill="#F9F1E4"/>
<path d="M95.7627 154.766C95.7627 154.766 90.8095 155.032 90.9386 154.838C90.9386 154.838 88.6092 163.407 86.8418 170.587C88.5996 172.478 90.4692 174.063 92.4498 175.136C92.4498 175.136 95.6356 172.808 99.5756 168.599C97.8618 161.851 95.7627 154.766 95.7627 154.766Z" fill="#4D2A22"/>
<path d="M97.2778 148.243C97.8532 148.983 97.6907 155.193 96.8687 155.522C96.0467 155.851 89.9646 156.409 89.1426 155.586C88.3205 154.764 88.1504 148.407 88.1504 148.407C88.1504 148.407 96.7024 147.502 97.2778 148.243Z" fill="#4D2A22"/>
<path d="M93.721 148.226C93.3798 148.112 87.6112 156.553 84.8813 154.847C82.1514 153.141 77.8491 143.838 79.7828 142.018C81.7165 140.199 105.274 140.373 105.686 142.84C106.007 144.761 103.956 156.32 100.999 155.751C98.0424 155.183 93.721 148.226 93.721 148.226Z" fill="#F7FFFA"/>
<path d="M63.1358 150.137C62.8691 150.505 62.6063 150.885 62.3482 151.284C62.3071 151.347 62.2669 151.413 62.2268 151.477C61.9945 151.841 61.7661 152.216 61.5414 152.602C61.4908 152.689 61.4401 152.774 61.3895 152.861C61.1448 153.288 60.9049 153.727 60.6688 154.174C60.6143 154.276 60.5617 154.38 60.5082 154.484C60.296 154.894 60.0866 155.311 59.8821 155.733C59.8496 155.8 59.8161 155.866 59.7846 155.933C59.5609 156.4 59.343 156.875 59.1289 157.352C59.0734 157.475 59.019 157.6 58.9635 157.724C58.7523 158.203 58.5449 158.684 58.3441 159.166C58.3231 159.218 58.3021 159.27 58.281 159.32C58.0937 159.772 57.913 160.225 57.7353 160.678C57.6875 160.799 57.6397 160.919 57.5928 161.04C57.4074 161.518 57.2267 161.995 57.0528 162.467C57.0165 162.565 56.982 162.662 56.9467 162.759C56.7928 163.181 56.6427 163.6 56.4974 164.013C56.4649 164.105 56.4324 164.198 56.3999 164.289C56.2384 164.753 56.0826 165.211 55.9325 165.66C55.8972 165.767 55.8627 165.871 55.8283 165.976C55.685 166.408 55.5464 166.833 55.4154 167.245C55.4078 167.27 55.3992 167.296 55.3915 167.32C55.251 167.762 55.1191 168.189 54.992 168.603C54.9671 168.686 54.9413 168.769 54.9165 168.85C54.7922 169.258 54.6737 169.656 54.5637 170.031C54.5609 170.039 54.559 170.048 54.5561 170.056C54.4404 170.45 54.3334 170.823 54.2349 171.174C54.2292 171.195 54.2225 171.216 54.2168 171.237C54.1164 171.594 54.0227 171.928 53.9396 172.233C58.7179 174.361 63.7246 176.06 68.8958 177.341C69.0191 163.14 66.7632 152.536 64.9596 148.009C64.6766 148.275 64.3985 148.543 64.1557 148.827C63.8718 149.158 63.5937 149.516 63.3184 149.886C63.2572 149.971 63.196 150.052 63.1358 150.137Z" fill="#F58345"/>
<path d="M131.295 168.38C131.289 168.357 131.283 168.335 131.277 168.312C131.202 168.016 131.121 167.703 131.034 167.377C131.021 167.33 131.008 167.282 130.995 167.235C130.909 166.913 130.819 166.58 130.721 166.234C130.717 166.222 130.714 166.21 130.711 166.197C130.615 165.856 130.512 165.502 130.405 165.14C130.38 165.056 130.355 164.972 130.329 164.887C130.221 164.526 130.108 164.158 129.99 163.781C129.974 163.731 129.956 163.679 129.94 163.628C129.833 163.292 129.721 162.949 129.606 162.603C129.574 162.508 129.543 162.414 129.511 162.319C129.382 161.937 129.248 161.551 129.109 161.162C129.077 161.073 129.044 160.983 129.011 160.895C128.883 160.541 128.75 160.184 128.613 159.826C128.588 159.758 128.563 159.69 128.536 159.621C128.383 159.226 128.223 158.828 128.06 158.43C128.017 158.326 127.974 158.223 127.93 158.119C127.761 157.714 127.587 157.309 127.406 156.907C127.389 156.87 127.372 156.833 127.355 156.796C127.183 156.418 127.007 156.043 126.826 155.67C126.782 155.579 126.739 155.489 126.694 155.399C126.501 155.008 126.302 154.619 126.098 154.237C126.058 154.164 126.018 154.094 125.979 154.021C125.79 153.674 125.597 153.331 125.399 152.995C125.363 152.934 125.328 152.872 125.292 152.812C125.071 152.443 124.844 152.084 124.612 151.733C124.562 151.657 124.511 151.582 124.46 151.507C124.219 151.15 123.974 150.799 123.72 150.464C123.718 150.462 123.716 150.459 123.713 150.456C123.458 150.121 123.163 149.796 122.834 149.478C122.772 149.418 122.697 149.36 122.633 149.301C122.341 149.033 122.034 148.77 121.693 148.514C121.643 148.477 121.587 148.441 121.536 148.404C121.153 148.124 120.748 147.851 120.309 147.586C120.291 147.575 120.271 147.564 120.252 147.553C119.774 147.267 119.267 146.989 118.73 146.72C115.873 153.647 116.432 166.287 117.674 175.798C122.534 174.255 127.219 172.318 131.685 170.014C131.584 169.554 131.451 169.001 131.295 168.38Z" fill="#F58345"/>
<path d="M96.8822 135.753L97.6478 145.273L93.7097 149.143L89.8509 145.459L89.394 135.66L96.8822 135.753Z" fill="#FDC59D"/>
<path d="M96.8822 135.753L89.394 135.66L89.6999 142.21L97.4232 142.481L96.8822 135.753Z" fill="#EEA47D"/>
<path d="M155.57 101.129C155.25 110.261 148.205 117.425 139.836 117.131C131.466 116.838 124.94 109.198 125.26 100.067C125.58 90.9362 132.625 83.7721 140.995 84.0656C149.364 84.359 155.89 91.9981 155.57 101.129Z" fill="#FDC59D"/>
<path d="M152.466 100.807C152.276 106.191 148.123 110.415 143.188 110.242C138.253 110.069 134.405 105.565 134.594 100.181C134.783 94.7977 138.937 90.5728 143.872 90.7459C148.807 90.9189 152.655 95.4238 152.466 100.807Z" fill="#EEA47D"/>
<path d="M55.0465 96.1225C54.7263 105.254 47.6817 112.418 39.3113 112.124C30.9419 111.831 24.4153 104.191 24.7355 95.0606C25.0557 85.9294 32.1004 78.7653 40.4707 79.0588C48.8411 79.3522 55.3667 86.9913 55.0465 96.1225Z" fill="#FDC59D"/>
<path d="M48.5439 95.7603C48.3547 101.144 44.2015 105.368 39.2664 105.195C34.3314 105.022 30.4841 100.518 30.6724 95.1342C30.8607 89.75 35.0148 85.5261 39.9499 85.6991C44.8849 85.8721 48.7322 90.3761 48.5439 95.7603Z" fill="#EEA47D"/>
<path d="M100.98 48.1679L83.6532 47.5599C36.1283 48.4804 42.6434 67.9892 41.8615 90.2891L41.6273 96.9542C40.8455 119.253 58.2888 137.964 80.5878 138.746L97.9144 139.353C120.213 140.135 138.924 122.691 139.706 100.392L139.939 93.7273C140.723 71.4284 151.358 43.0627 100.98 48.1679Z" fill="#FDC59D"/>
<path d="M105.627 71.216C107.535 70.9723 109.49 71.0191 111.401 71.2094C112.342 71.303 113.272 71.4674 114.193 71.6777C115.112 71.8871 116.141 72.3975 117.08 72.1815C117.748 72.0276 117.848 71.218 117.456 70.7582C116.819 70.0117 115.456 69.8587 114.533 69.6676C113.535 69.4602 112.519 69.3187 111.504 69.2317C109.452 69.0549 107.434 69.2527 105.407 69.5988C104.504 69.7536 104.705 71.3336 105.627 71.216Z" fill="#4F0200"/>
<path d="M76.2128 69.5988C74.1874 69.2527 72.1696 69.0549 70.1164 69.2317C69.1013 69.3187 68.0852 69.4602 67.0873 69.6676C66.1592 69.8607 64.8038 70.0088 64.1643 70.7582C63.7724 71.217 63.8718 72.0276 64.54 72.1815C65.4844 72.3984 66.5052 71.888 67.4266 71.6777C68.3481 71.4674 69.2781 71.303 70.2187 71.2094C72.1313 71.0191 74.0851 70.9723 75.993 71.216C76.9067 71.3327 77.1266 69.7546 76.2128 69.5988Z" fill="#4F0200"/>
<path d="M149.442 35.4369C135.283 14.3796 108.208 17.2509 102.455 18.1303C101.285 12.3637 98.1877 6.30171 90.3392 6.08951C75.2579 5.68232 53.6547 26.0619 43.0572 29.7305C33.8046 32.9335 25.3702 44.8338 24.7145 58.2625C23.8991 74.9745 37.9587 104.291 42.6491 100.246C44.6181 98.5476 44.2195 90.2938 44.7481 80.0902C46.7735 69.2843 48.0334 57.9002 54.0619 54.5939C55.2844 53.9239 56.5605 53.3934 57.8748 52.9699C68.7332 63.9593 83.0022 55.8164 83.0022 55.8164L68.7361 67.2293C89.1167 68.8599 94.8231 57.8543 94.8231 57.8543C93.1925 62.7454 81.3724 71.305 81.3724 71.305C99.6253 67.8152 105.679 57.2579 107.687 50.4522C114.035 49.332 118.738 48.9669 125.394 51.7398C140.067 57.8534 137.145 100.002 139.459 100.002C141.774 100.002 140.148 84.8665 149.287 86.6597C149.287 86.6597 150.397 80.3741 150.357 71.7561C155.038 63.1459 158.957 49.5862 149.442 35.4369Z" fill="#6C4B41"/>
<path d="M70.1852 36.5314C73.2544 38.6983 67.1159 43.2118 64.0467 42.1288C60.9765 41.0449 67.1159 34.3645 70.1852 36.5314Z" fill="#7C5850"/>
<path d="M67.1962 28.1266C70.3658 32.0169 61.3397 39.0404 56.549 36.3784C51.7573 33.7164 63.9291 24.1168 67.1962 28.1266Z" fill="#7C5850"/>
<path d="M80.603 110.108C83.9131 109.936 87.2252 109.789 90.5381 109.691C92.1621 109.643 93.7871 109.609 95.411 109.581C97.0867 109.551 98.8148 109.648 100.48 109.462C100.85 109.421 100.858 108.912 100.48 108.88C98.812 108.74 97.0828 108.897 95.411 108.947C93.7861 108.995 92.1621 109.054 90.5381 109.115C87.2252 109.24 83.9131 109.387 80.603 109.571C80.2589 109.589 80.2561 110.127 80.603 110.108Z" fill="#4F0200"/>
<path d="M87.704 113.354C88.7985 113.356 89.8929 113.358 90.9874 113.361C91.5236 113.362 92.0598 113.364 92.597 113.365C93.1466 113.366 93.7249 113.417 94.2707 113.354C94.6205 113.313 94.6215 112.849 94.2707 112.809C93.724 112.746 93.1476 112.796 92.597 112.797C92.0608 112.798 91.5245 112.8 90.9874 112.801C89.8929 112.804 88.7985 112.806 87.704 112.809C87.3532 112.81 87.3523 113.354 87.704 113.354Z" fill="#4F0200"/>
<path d="M109.017 107.672C114.627 107.665 119.17 103.111 119.163 97.4998L119.156 92.1213C119.15 86.5105 114.595 81.9683 108.984 81.975C103.373 81.9817 98.8301 86.5363 98.8378 92.1471L98.8445 97.5257C98.8511 103.136 103.406 107.68 109.017 107.672Z" fill="#F7FFFA"/>
<path d="M98.8378 92.1471C98.834 89.1114 100.169 86.392 102.278 84.5281C103.08 84.2366 103.926 84.0731 104.803 84.0722C109.754 84.0655 113.773 89.011 113.782 95.116C113.789 101.222 109.782 106.176 104.832 106.183C104.383 106.184 103.945 106.13 103.513 106.052C100.711 104.246 98.8492 101.107 98.8445 97.5257L98.8378 92.1471Z" fill="#6C4B41"/>
<path d="M71.1449 107.671C65.5351 107.75 60.9231 103.267 60.8438 97.6567L60.7682 92.2791C60.6889 86.6693 65.1728 82.0573 70.7836 81.978C76.3935 81.8986 81.0055 86.3825 81.0848 91.9933L81.1603 97.3709C81.2397 102.98 76.7558 107.592 71.1449 107.671Z" fill="#F7FFFA"/>
<path d="M81.0848 91.9914C81.0418 88.9556 79.6654 86.2573 77.5281 84.4259C76.7223 84.1468 75.8735 83.9967 74.9961 84.0091C70.0467 84.0789 66.1029 89.0847 66.1889 95.1897C66.2749 101.295 70.3573 106.188 75.3077 106.118C75.7569 106.112 76.1938 106.051 76.6249 105.967C79.3987 104.118 81.212 100.951 81.1613 97.37L81.0848 91.9914Z" fill="#6C4B41"/>
<path d="M146.362 78.6727C141.651 76.7887 109.868 67.7493 93.9839 85.2594C93.9839 85.2594 93.8596 85.9496 93.7402 87.11C91.5666 86.7572 89.6061 86.7831 88.2134 86.9064C88.1523 86.4122 88.1054 86.135 88.1054 86.135C74.8478 66.499 39.9994 76.7887 35.29 78.6727C30.5796 80.5567 30.3444 85.031 32.2284 88.7989C34.1124 92.5669 39.2931 90.4478 39.2931 90.4478C38.3516 111.407 45.9133 118.072 65.6688 117.059C85.3832 116.048 88.3702 100.656 88.4753 91.9771C90.5534 91.4944 92.2806 91.5852 93.5308 91.8184C93.6226 100.835 96.6574 116.067 115.982 117.059C135.737 118.072 143.299 111.407 142.358 90.4478C142.358 90.4478 147.538 92.5669 149.422 88.7989C151.307 85.031 151.071 80.5567 146.362 78.6727ZM56.0137 112.113C40.2355 108.345 42.9941 83.0208 42.9941 83.0208C71.7824 73.9346 84.1195 86.177 84.1195 86.177C85.5323 106.194 71.792 115.881 56.0137 112.113ZM125.638 112.113C109.86 115.881 96.1183 106.194 97.532 86.177C97.532 86.177 109.87 73.9355 138.657 83.0208C138.657 83.0208 141.416 108.345 125.638 112.113Z" fill="#4D2A22"/>
<path d="M91.8705 96.5297C91.4576 97.3211 91.0112 98.103 90.6308 98.9098C90.8793 98.8773 91.1279 98.8457 91.3764 98.8132C91.0237 98.363 90.6614 97.9147 90.2638 97.5028C90.0688 97.3001 89.869 97.1013 89.6683 96.9044C89.4675 96.7075 89.2295 96.5087 89.111 96.2516C88.9743 95.9533 88.4916 96.0422 88.4209 96.3414C88.3377 96.6903 88.311 97.0602 88.2718 97.4158C88.2364 97.7408 88.2192 98.0667 88.2068 98.3927C88.1953 98.7186 88.1905 99.0455 88.1924 99.3714C88.1953 99.7308 88.1552 100.149 88.3234 100.476C88.4945 100.809 88.9409 100.677 89.0537 100.381C89.1684 100.081 89.0862 99.6878 89.0795 99.3714C89.0718 99.0455 89.0709 98.7186 89.0776 98.3927C89.0909 97.7436 89.1636 97.0898 89.1626 96.4408C88.9734 96.5498 88.7841 96.6578 88.5939 96.7668C88.8338 96.8862 89.0135 97.1348 89.177 97.3441C89.3461 97.5601 89.5077 97.7819 89.6673 98.0055C89.9933 98.4634 90.324 98.9164 90.6308 99.3867C90.822 99.6792 91.2664 99.7079 91.4509 99.3867C91.8963 98.6134 92.2835 97.8 92.6964 97.0095C92.8159 96.7811 92.7547 96.4905 92.5253 96.3557C92.3093 96.2324 91.991 96.3003 91.8705 96.5297Z" fill="#4F0200"/>
<path opacity="0.61" d="M70.9183 117.03C70.3276 120.81 65.8198 123.246 60.8513 122.469C55.8828 121.692 52.3338 117.996 52.9245 114.216C53.5152 110.435 58.023 108 62.9915 108.777C67.9609 109.554 71.51 113.249 70.9183 117.03Z" fill="#FCA691"/>
<path opacity="0.61" d="M129.783 112.32C130.562 116.067 127.2 119.933 122.275 120.955C117.351 121.977 112.728 119.769 111.951 116.022C111.173 112.275 114.535 108.41 119.459 107.387C124.383 106.364 129.005 108.573 129.783 112.32Z" fill="#FCA691"/>
</svg>
