<svg width="181" height="180" viewBox="0 0 181 180" fill="none" xmlns="http://www.w3.org/2000/svg">
<path d="M90.5096 180C105.358 180 119.352 176.382 131.697 170.015C130.827 166.237 128.246 156.433 123.732 150.465C116.128 140.418 73.9401 137.425 64.1638 148.831C59.0835 154.758 55.3108 167.243 53.9478 172.236C65.1225 177.212 77.4872 180 90.5096 180Z" fill="#CA2F16"/>
<path d="M90.5096 180C94.3951 180 98.2194 179.746 101.974 179.266C101.404 173.411 96.0238 155.243 96.0238 155.243C96.0238 155.243 91.0706 155.51 91.1997 155.317C91.1997 155.317 85.738 175.407 85.1951 179.834C86.9548 179.937 88.7241 180 90.5096 180Z" fill="#2C2C2C"/>
<path d="M97.5388 148.721C98.1142 149.461 97.9517 155.671 97.1287 155.999C96.3067 156.328 90.2248 156.886 89.4027 156.063C88.5807 155.241 88.4115 148.885 88.4115 148.885C88.4115 148.885 96.9634 147.981 97.5388 148.721Z" fill="#2C2C2C"/>
<path d="M93.509 147.981C93.1677 147.867 88.2615 156.758 85.5325 155.053C82.8027 153.347 78.5004 144.045 80.4341 142.225C82.3677 140.405 105.926 140.58 106.337 143.047C106.658 144.968 104.607 156.526 101.65 155.957C98.6935 155.389 93.509 147.981 93.509 147.981Z" fill="#E55041"/>
<path d="M63.143 150.138C62.8763 150.506 62.6134 150.886 62.3553 151.285C62.3142 151.348 62.2741 151.414 62.234 151.478C62.0017 151.842 61.7732 152.217 61.5486 152.603C61.4979 152.69 61.4473 152.775 61.3966 152.862C61.1519 153.289 60.9121 153.728 60.676 154.175C60.6224 154.277 60.5689 154.381 60.5154 154.485C60.3032 154.895 60.0939 155.311 59.8893 155.734C59.8568 155.801 59.8234 155.867 59.7918 155.934C59.5682 156.401 59.3502 156.876 59.1361 157.353C59.0806 157.476 59.0262 157.601 58.9707 157.725C58.7595 158.204 58.5521 158.684 58.3514 159.167C58.3303 159.219 58.3093 159.27 58.2883 159.321C58.1019 159.773 57.9203 160.226 57.7425 160.678C57.6956 160.8 57.6469 160.92 57.601 161.041C57.4156 161.518 57.2349 161.995 57.0609 162.468C57.0246 162.566 56.9902 162.663 56.9549 162.76C56.801 163.182 56.6509 163.6 56.5056 164.014C56.4731 164.106 56.4407 164.199 56.4091 164.289C56.2476 164.754 56.0918 165.212 55.9417 165.661C55.9063 165.767 55.8719 165.871 55.8375 165.976C55.6951 166.408 55.5555 166.834 55.4246 167.246C55.4169 167.27 55.4083 167.296 55.4006 167.32C55.2601 167.763 55.1283 168.189 55.0011 168.604C54.9763 168.686 54.9505 168.769 54.9256 168.85C54.8014 169.259 54.6828 169.656 54.5729 170.031C54.5701 170.039 54.5682 170.048 54.5653 170.057C54.4496 170.45 54.3425 170.823 54.2431 171.174C54.2374 171.195 54.2317 171.216 54.225 171.237C54.1237 171.595 54.031 171.928 53.9478 172.233C58.726 174.361 63.7327 176.06 68.9038 177.341C69.0271 163.14 66.7713 152.537 64.9677 148.01C64.6847 148.277 64.4066 148.544 64.1638 148.828C63.8799 149.159 63.6018 149.517 63.3265 149.887C63.2653 149.972 63.2041 150.053 63.143 150.138Z" fill="#A90D00"/>
<path d="M131.301 168.38C131.295 168.357 131.29 168.335 131.284 168.312C131.209 168.016 131.127 167.703 131.04 167.377C131.028 167.331 131.014 167.283 131.002 167.235C130.916 166.913 130.825 166.58 130.727 166.234C130.724 166.222 130.721 166.21 130.717 166.197C130.62 165.857 130.518 165.502 130.411 165.141C130.386 165.057 130.361 164.973 130.336 164.888C130.228 164.526 130.115 164.158 129.996 163.782C129.98 163.731 129.963 163.679 129.948 163.629C129.84 163.292 129.729 162.949 129.613 162.603C129.581 162.508 129.551 162.415 129.518 162.319C129.389 161.938 129.255 161.552 129.116 161.163C129.084 161.074 129.051 160.984 129.018 160.895C128.89 160.541 128.757 160.185 128.621 159.826C128.595 159.759 128.57 159.691 128.543 159.622C128.39 159.226 128.231 158.829 128.067 158.431C128.024 158.327 127.981 158.224 127.938 158.119C127.769 157.714 127.595 157.31 127.415 156.907C127.398 156.87 127.38 156.834 127.363 156.797C127.192 156.419 127.015 156.043 126.834 155.671C126.79 155.58 126.747 155.49 126.702 155.4C126.509 155.008 126.311 154.62 126.106 154.238C126.067 154.165 126.027 154.094 125.987 154.022C125.798 153.675 125.605 153.332 125.407 152.996C125.371 152.935 125.337 152.873 125.3 152.813C125.079 152.444 124.853 152.084 124.621 151.734C124.57 151.658 124.519 151.583 124.469 151.508C124.228 151.151 123.982 150.8 123.729 150.465C123.727 150.462 123.724 150.46 123.721 150.457C123.467 150.122 123.172 149.797 122.843 149.479C122.781 149.419 122.706 149.361 122.641 149.302C122.35 149.034 122.044 148.771 121.701 148.515C121.652 148.478 121.595 148.442 121.545 148.405C121.161 148.125 120.756 147.852 120.317 147.587C120.299 147.576 120.279 147.565 120.26 147.554C119.782 147.268 119.275 146.99 118.738 146.721C115.881 153.648 116.441 166.288 117.683 175.798C122.544 174.255 127.228 172.318 131.694 170.014C131.591 169.554 131.459 169.001 131.301 168.38Z" fill="#A90D00"/>
<path d="M96.8888 135.754L97.6545 145.274L93.5912 148.146L89.8577 145.46L89.4008 135.662L96.8888 135.754Z" fill="#CC691F"/>
<path d="M96.8888 135.754L89.4008 135.662L89.7067 142.211L97.4298 142.482L96.8888 135.754Z" fill="#954714"/>
<path d="M155.576 101.132C155.256 110.263 148.212 117.427 139.842 117.133C131.472 116.84 124.947 109.2 125.267 100.07C125.587 90.9393 132.631 83.7754 141.002 84.0689C149.371 84.3623 155.897 92.0012 155.576 101.132Z" fill="#CC691F"/>
<path d="M152.472 100.81C152.283 106.194 148.129 110.418 143.194 110.245C138.259 110.072 134.411 105.568 134.6 100.184C134.79 94.8007 138.943 90.576 143.878 90.749C148.813 90.922 152.661 95.4268 152.472 100.81Z" fill="#954714"/>
<path d="M55.0537 96.1255C54.7335 105.256 47.689 112.42 39.3187 112.127C30.9494 111.833 24.4239 104.193 24.7432 95.0636C25.0634 85.9327 32.1079 78.7689 40.4782 79.0623C48.8485 79.3557 55.3749 86.9946 55.0537 96.1255Z" fill="#CC691F"/>
<path d="M48.5512 95.7633C48.3619 101.146 44.2088 105.371 39.2738 105.198C34.3389 105.025 30.4916 100.52 30.6799 95.1372C30.8682 89.7531 35.0223 85.5294 39.9573 85.7024C44.8923 85.8754 48.7395 90.3792 48.5512 95.7633Z" fill="#954714"/>
<path d="M102.489 43.3856L83.661 47.5644C43.1392 50.3114 42.6517 67.993 41.8698 90.2922L41.6356 96.9571C40.8538 119.255 58.2968 137.965 80.5956 138.747L97.9221 139.354C120.221 140.136 138.931 122.693 139.713 100.395L139.946 93.7302C140.729 71.4321 147.878 44.4829 102.489 43.3856Z" fill="#CC691F"/>
<path d="M103.98 72.6669C105.888 72.4232 107.843 72.47 109.754 72.6602C110.695 72.7539 111.625 72.9183 112.546 73.1286C113.465 73.3379 114.494 73.8483 115.433 73.6323C116.101 73.4793 116.201 72.6688 115.809 72.2091C115.172 71.4626 113.809 71.3097 112.886 71.1185C111.888 70.9111 110.872 70.7696 109.857 70.6826C107.805 70.5058 105.787 70.7037 103.76 71.0497C102.857 71.2036 103.057 72.7845 103.98 72.6669Z" fill="#4F0200"/>
<path d="M74.2909 70.5029C72.2272 70.3442 70.2028 70.3758 68.1631 70.7428C67.1642 70.9225 66.173 71.1634 65.2057 71.4721C64.247 71.7789 63.0656 72.0437 62.4663 72.8962C62.0505 73.4879 62.6316 74.1034 63.2013 74.177C63.7184 74.2439 64.1323 74.0279 64.5997 73.8473C65.0422 73.6771 65.4896 73.5213 65.9417 73.3761C66.844 73.0855 67.7616 72.8437 68.6916 72.6592C70.5297 72.295 72.4175 72.0828 74.2909 72.1478C75.3595 72.187 75.3366 70.5832 74.2909 70.5029Z" fill="#4F0200"/>
<path d="M152.152 45.8917C148.122 30.7794 131.246 28.0094 131.246 28.0094C131.246 28.0094 125.452 13.9045 107.569 10.8822C87.6871 7.52156 76.5878 16.9268 70.7955 19.95C65.0021 22.9723 40.8261 16.8321 35.7841 30.2766C32.4903 39.0605 35.2851 44.2325 39.0406 47.2385C35.136 55.7405 33.2043 66.653 33.9766 80.5152C33.9766 80.5152 38.2587 83.0117 39.0731 88.7208C40.2278 96.8223 43.4346 98.4252 43.4719 88.1196C43.5111 77.3265 47.885 62.7064 53.6879 56.4124C64.7937 62.4025 82.7702 54.4291 86.6595 52.5643C86.735 52.5633 86.8106 52.5643 86.887 52.5643L75.5814 60.5023C91.4502 62.7695 107.067 50.4271 107.067 50.4271C103.037 55.2128 96.2361 61.2574 96.2361 61.2574C108.716 61.2574 116.645 53.9607 119.931 50.1575C121.334 50.4663 122.748 50.8763 124.194 51.4345C138.552 56.9754 137.153 100.008 139.467 100.008C141.781 100.008 140.155 84.8727 149.295 86.6658C149.295 86.6639 156.793 63.2962 152.152 45.8917Z" fill="#4D2A22"/>
<path d="M70.1923 36.5361C73.2615 38.703 67.1231 43.2163 64.0539 42.1334C60.9838 41.0495 67.1231 34.3693 70.1923 36.5361Z" fill="#6C4B41"/>
<path d="M67.2034 28.1318C70.373 32.0219 61.347 39.0453 56.5564 36.3833C51.7648 33.7214 63.9373 24.1221 67.2034 28.1318Z" fill="#6C4B41"/>
<path d="M70.1923 36.5361C73.2615 38.703 67.1231 43.2163 64.0539 42.1334C60.9838 41.0495 67.1231 34.3693 70.1923 36.5361Z" fill="#6C4B41"/>
<path d="M67.2034 28.1318C70.373 32.0219 61.347 39.0453 56.5564 36.3833C51.7648 33.7214 63.9373 24.1221 67.2034 28.1318Z" fill="#6C4B41"/>
<path d="M78.2911 110.719C81.8134 112.721 85.8556 113.616 89.8988 113.429C91.8525 113.339 93.8005 113.002 95.6663 112.415C97.4614 111.851 99.5757 111.112 101.023 109.88C101.326 109.622 100.94 109.216 100.625 109.363C98.8292 110.203 97.2539 111.245 95.3241 111.829C93.5071 112.38 91.6222 112.691 89.7239 112.759C85.8527 112.898 82.0103 112.017 78.5702 110.241C78.2557 110.079 77.9805 110.542 78.2911 110.719Z" fill="#4F0200"/>
<path d="M99.8902 109.038C99.9169 109.039 99.9428 109.04 99.9695 109.042C100.043 109.049 99.9428 109.034 99.9972 109.046C100.041 109.057 100.085 109.064 100.128 109.078C100.153 109.085 100.178 109.094 100.203 109.103C100.271 109.127 100.18 109.088 100.229 109.113C100.27 109.133 100.31 109.152 100.349 109.175C100.391 109.2 100.43 109.229 100.471 109.255C100.488 109.268 100.484 109.264 100.459 109.246C100.47 109.255 100.482 109.265 100.494 109.275C100.511 109.289 100.529 109.304 100.545 109.32C100.581 109.353 100.616 109.388 100.648 109.425C100.665 109.445 100.683 109.465 100.7 109.485C100.668 109.448 100.694 109.477 100.709 109.499C100.767 109.58 100.815 109.665 100.857 109.753C100.863 109.765 100.889 109.834 100.864 109.767C100.872 109.788 100.88 109.809 100.888 109.83C100.905 109.88 100.92 109.93 100.931 109.981C100.936 110.003 100.94 110.025 100.944 110.047C100.96 110.12 100.941 109.984 100.946 110.058C100.95 110.111 100.954 110.163 100.953 110.215C100.952 110.237 100.951 110.26 100.949 110.282C100.948 110.295 100.936 110.369 100.949 110.295C100.943 110.335 100.934 110.377 100.932 110.417C100.928 110.503 100.973 110.566 101.024 110.629C101.099 110.725 101.252 110.721 101.35 110.671C101.518 110.584 101.528 110.361 101.53 110.193C101.532 110.071 101.516 109.947 101.49 109.828C101.438 109.584 101.323 109.359 101.172 109.163C100.865 108.766 100.401 108.5 99.893 108.496C99.7506 108.494 99.6139 108.622 99.6206 108.768C99.6244 108.918 99.7373 109.033 99.8902 109.038Z" fill="#4F0200"/>
<path d="M78.0904 111.676C78.0656 111.576 78.0531 111.528 78.056 111.422C78.0569 111.401 78.0589 111.38 78.0608 111.359C78.056 111.404 78.0665 111.328 78.0665 111.326C78.0751 111.281 78.0856 111.236 78.0981 111.191C78.1105 111.146 78.1258 111.102 78.142 111.058C78.1698 110.979 78.1153 111.111 78.1506 111.037C78.1611 111.014 78.1726 110.992 78.1831 110.969C78.1946 110.945 78.2472 110.826 78.2195 110.884C78.2003 110.926 78.2309 110.86 78.2347 110.853C78.2567 110.807 78.2806 110.761 78.3074 110.717C78.3313 110.677 78.358 110.638 78.3848 110.598C78.4058 110.568 78.4135 110.561 78.3867 110.595C78.403 110.574 78.4192 110.555 78.4355 110.535C78.4661 110.5 78.4986 110.466 78.533 110.434C78.5511 110.416 78.5702 110.4 78.5893 110.382C78.6237 110.352 78.6247 110.364 78.5893 110.382C78.6715 110.34 78.7557 110.298 78.8369 110.254C78.9096 110.215 78.7662 110.278 78.8379 110.253C78.8618 110.245 78.8857 110.235 78.9096 110.227C78.9583 110.211 79.008 110.199 79.0577 110.188C79.2641 110.144 79.4037 109.891 79.3397 109.692C79.2757 109.493 79.0577 109.339 78.8436 109.41C78.3695 109.569 77.9681 109.94 77.7387 110.384C77.6202 110.614 77.559 110.846 77.5551 111.105C77.5532 111.228 77.5695 111.351 77.5905 111.473C77.5857 111.442 77.6001 111.535 77.602 111.547C77.6058 111.572 77.6106 111.597 77.6163 111.622C77.6287 111.68 77.6459 111.738 77.666 111.794C77.7587 112.058 78.1602 111.955 78.0904 111.676Z" fill="#4F0200"/>
<path d="M85.9761 116.984C87.3506 117.479 88.814 117.688 90.2745 117.607C90.979 117.569 91.6854 117.465 92.3726 117.308C93.0331 117.157 93.8627 116.997 94.4171 116.59C94.5796 116.47 94.5576 116.118 94.2986 116.151C93.6649 116.232 93.0446 116.516 92.4175 116.654C91.7112 116.808 90.9962 116.893 90.2745 116.922C88.8733 116.979 87.4759 116.822 86.1147 116.48C85.785 116.397 85.6636 116.871 85.9761 116.984Z" fill="#4F0200"/>
<path d="M109.023 107.675C114.634 107.668 119.176 103.113 119.17 97.5027L119.163 92.1244C119.156 86.5137 114.602 81.9717 108.992 81.9784C103.381 81.9851 98.8379 86.5395 98.8455 92.1502L98.8522 97.5285C98.858 103.139 103.413 107.682 109.023 107.675Z" fill="#F7FFFA"/>
<path d="M98.8446 92.1502C98.8407 89.1145 100.176 86.3952 102.285 84.5314C103.087 84.2399 103.932 84.0764 104.81 84.0754C109.76 84.0688 113.78 89.0141 113.787 95.1189C113.795 101.225 109.788 106.179 104.838 106.185C104.388 106.186 103.951 106.133 103.519 106.054C100.717 104.249 98.855 101.11 98.8503 97.5285L98.8446 92.1502Z" fill="#4D2A22"/>
<path d="M71.152 107.674C65.5422 107.753 60.9303 103.269 60.8509 97.6596L60.7755 92.2822C60.6961 86.6725 65.1799 82.0607 70.7898 81.9814C76.3996 81.9021 81.0124 86.3858 81.0908 91.9964L81.1664 97.3738C81.2466 102.983 76.7628 107.594 71.152 107.674Z" fill="#F7FFFA"/>
<path d="M81.0918 91.9944C81.0488 88.9588 79.6724 86.2605 77.5351 84.4292C76.7293 84.1501 75.8806 84 75.0031 84.0124C70.0538 84.0822 66.1099 89.0878 66.196 95.1926C66.282 101.297 70.3644 106.19 75.3147 106.12C75.7639 106.115 76.2007 106.053 76.6318 105.969C79.4057 104.121 81.2189 100.953 81.1682 97.3728L81.0918 91.9944Z" fill="#4D2A22"/>
<path d="M90.6348 97.7762C90.2219 98.5666 89.7746 99.3495 89.3951 100.156C89.6436 100.125 89.8922 100.092 90.1407 100.061C89.788 99.6104 89.4257 99.1621 89.0281 98.7502C88.8331 98.5475 88.6334 98.3487 88.4326 98.1528C88.2319 97.9559 87.9939 97.7571 87.8754 97.5C87.7387 97.2017 87.256 97.2906 87.1853 97.5898C87.1021 97.9377 87.0763 98.3086 87.0371 98.6641C87.0017 98.9891 86.9845 99.3151 86.9721 99.6419C86.9606 99.9679 86.9558 100.294 86.9577 100.621C86.9606 100.98 86.9205 101.399 87.0887 101.726C87.2598 102.058 87.7062 101.926 87.819 101.63C87.9337 101.33 87.8515 100.937 87.8438 100.621C87.8362 100.295 87.8352 99.9679 87.8419 99.6419C87.8553 98.992 87.9289 98.3392 87.926 97.6902C87.7368 97.7991 87.5475 97.9071 87.3573 98.0161C87.5972 98.1356 87.7769 98.3841 87.9404 98.5934C88.1095 98.8094 88.2711 99.0312 88.4307 99.2548C88.7567 99.7127 89.0874 100.166 89.3942 100.636C89.5854 100.928 90.0289 100.957 90.2143 100.636C90.6598 99.8627 91.0459 99.0493 91.4598 98.2589C91.5792 98.0304 91.5181 97.7399 91.2887 97.6051C91.0736 97.4789 90.7543 97.5468 90.6348 97.7762Z" fill="#4F0200"/>
<path opacity="0.61" d="M69.1619 116.276C68.5712 120.056 64.0635 122.492 59.095 121.714C54.1266 120.937 50.5775 117.243 51.1682 113.462C51.759 109.682 56.2667 107.246 61.2351 108.023C66.2045 108.801 69.7536 112.496 69.1619 116.276Z" fill="#FCA691"/>
<path opacity="0.61" d="M130.042 111.567C130.82 115.313 127.459 119.179 122.534 120.201C117.61 121.223 112.987 119.015 112.21 115.268C111.433 111.522 114.794 107.656 119.718 106.635C124.642 105.612 129.264 107.82 130.042 111.567Z" fill="#FCA691"/>
</svg>
