<svg width="181" height="180" viewBox="0 0 181 180" fill="none" xmlns="http://www.w3.org/2000/svg">
<path d="M90.5046 180C105.353 180 119.347 176.382 131.692 170.014C130.822 166.237 128.242 156.432 123.727 150.464C116.123 140.416 73.9359 137.424 64.1585 148.83C59.0782 154.757 55.3054 167.242 53.9424 172.235C65.1182 177.212 77.4821 180 90.5046 180Z" fill="#487C98"/>
<path d="M90.5046 180C94.3902 180 98.2145 179.746 101.969 179.267C101.399 173.411 96.019 155.244 96.019 155.244C96.019 155.244 91.0657 155.51 91.1948 155.317C91.1948 155.317 85.733 175.408 85.1901 179.835C86.9498 179.937 88.7191 180 90.5046 180Z" fill="#CA2F16"/>
<path d="M97.534 148.72C98.1094 149.46 97.9469 155.67 97.1249 155.999C96.3028 156.328 90.2208 156.886 89.3987 156.063C88.5767 155.241 88.4066 148.884 88.4066 148.884C88.4066 148.884 96.9586 147.98 97.534 148.72Z" fill="#CA2F16"/>
<path d="M93.505 147.98C93.1637 147.866 88.2574 156.758 85.5284 155.052C82.7995 153.347 78.4962 144.044 80.4299 142.224C82.3636 140.404 105.921 140.579 106.333 143.046C106.654 144.966 104.603 156.525 101.646 155.957C98.6886 155.388 93.505 147.98 93.505 147.98Z" fill="#65B0D1"/>
<path d="M63.1386 150.136C62.8719 150.504 62.6091 150.885 62.351 151.283C62.3099 151.346 62.2698 151.413 62.2296 151.477C61.9974 151.841 61.7689 152.217 61.5443 152.602C61.4936 152.689 61.443 152.774 61.3923 152.861C61.1476 153.289 60.9077 153.727 60.6716 154.175C60.6171 154.277 60.5645 154.381 60.511 154.484C60.2988 154.894 60.0895 155.311 59.8849 155.734C59.8524 155.801 59.819 155.867 59.7874 155.933C59.5638 156.401 59.3458 156.876 59.1317 157.353C59.0763 157.476 59.0218 157.6 58.9664 157.725C58.7551 158.204 58.5477 158.684 58.347 159.167C58.3259 159.219 58.3049 159.27 58.2839 159.321C58.0975 159.773 57.9159 160.226 57.7381 160.678C57.6912 160.799 57.6425 160.92 57.5966 161.041C57.4112 161.518 57.2305 161.995 57.0566 162.468C57.0202 162.566 56.9858 162.663 56.9495 162.76C56.7956 163.182 56.6455 163.6 56.5002 164.014C56.4677 164.106 56.4353 164.198 56.4037 164.289C56.2422 164.755 56.0864 165.212 55.9363 165.661C55.9009 165.767 55.8665 165.871 55.8321 165.976C55.6897 166.409 55.5501 166.834 55.4192 167.246C55.4116 167.271 55.403 167.297 55.3953 167.32C55.2548 167.763 55.1229 168.189 54.9958 168.604C54.9709 168.686 54.9451 168.769 54.9202 168.851C54.796 169.259 54.6775 169.656 54.5675 170.031C54.5647 170.04 54.5627 170.048 54.5599 170.057C54.4442 170.452 54.3372 170.825 54.2387 171.174C54.233 171.195 54.2263 171.216 54.2206 171.236C54.1202 171.594 54.0265 171.929 53.9434 172.233C58.7217 174.36 63.7284 176.06 68.8995 177.341C69.0228 163.14 66.767 152.535 64.9633 148.008C64.6804 148.273 64.4023 148.542 64.1585 148.826C63.8746 149.157 63.5965 149.515 63.3212 149.885C63.26 149.971 63.1988 150.052 63.1386 150.136Z" fill="#346C84"/>
<path d="M131.296 168.38C131.291 168.357 131.285 168.335 131.279 168.312C131.204 168.016 131.122 167.703 131.035 167.377C131.023 167.33 131.01 167.282 130.997 167.235C130.911 166.912 130.82 166.58 130.723 166.234C130.719 166.221 130.716 166.209 130.712 166.197C130.617 165.856 130.514 165.502 130.406 165.141C130.382 165.057 130.357 164.973 130.331 164.888C130.223 164.527 130.11 164.159 129.992 163.782C129.975 163.731 129.958 163.68 129.942 163.629C129.835 163.293 129.723 162.95 129.607 162.603C129.576 162.509 129.545 162.415 129.513 162.32C129.384 161.938 129.25 161.552 129.11 161.163C129.079 161.074 129.045 160.984 129.013 160.895C128.885 160.541 128.752 160.185 128.615 159.827C128.589 159.759 128.565 159.691 128.538 159.622C128.385 159.226 128.225 158.829 128.062 158.431C128.019 158.327 127.976 158.224 127.932 158.12C127.763 157.714 127.589 157.31 127.408 156.908C127.391 156.87 127.374 156.834 127.356 156.797C127.185 156.418 127.008 156.044 126.828 155.671C126.784 155.581 126.741 155.49 126.696 155.4C126.503 155.008 126.304 154.62 126.099 154.238C126.06 154.165 126.021 154.095 125.981 154.022C125.792 153.675 125.599 153.332 125.401 152.996C125.364 152.935 125.33 152.873 125.294 152.813C125.073 152.445 124.846 152.085 124.614 151.734C124.563 151.658 124.513 151.583 124.462 151.508C124.221 151.151 123.976 150.8 123.722 150.465C123.72 150.462 123.717 150.459 123.715 150.457C123.46 150.122 123.165 149.797 122.836 149.479C122.774 149.419 122.699 149.362 122.634 149.302C122.343 149.034 122.037 148.771 121.695 148.515C121.645 148.478 121.589 148.442 121.538 148.404C121.155 148.125 120.75 147.852 120.311 147.587C120.292 147.576 120.273 147.565 120.253 147.554C119.775 147.268 119.269 146.99 118.732 146.721C115.875 153.648 116.434 166.288 117.676 175.799C122.537 174.256 127.221 172.319 131.687 170.014C131.586 169.553 131.454 169.001 131.296 168.38Z" fill="#346C84"/>
<path d="M96.8849 135.753L97.6496 145.273L93.5872 148.144L89.8537 145.459L89.3958 135.66L96.8849 135.753Z" fill="#CC691F"/>
<path d="M96.8849 135.753L89.3958 135.66L89.7017 142.21L97.4259 142.481L96.8849 135.753Z" fill="#954714"/>
<path d="M155.572 101.129C155.252 110.261 148.207 117.425 139.838 117.131C131.468 116.838 124.942 109.198 125.262 100.067C125.582 90.9354 132.627 83.7713 140.997 84.0647C149.367 84.3591 155.892 91.9983 155.572 101.129Z" fill="#CC691F"/>
<path d="M152.469 100.807C152.279 106.192 148.126 110.415 143.191 110.242C138.256 110.069 134.408 105.565 134.597 100.181C134.786 94.797 138.939 90.5731 143.874 90.7461C148.81 90.9191 152.657 95.424 152.469 100.807Z" fill="#954714"/>
<path d="M55.0493 96.1228C54.7291 105.254 47.6845 112.418 39.3141 112.125C30.9447 111.831 24.4192 104.191 24.7384 95.0599C25.0586 85.9297 32.1032 78.7646 40.4736 79.059C48.8439 79.3525 55.3696 86.9916 55.0493 96.1228Z" fill="#CC691F"/>
<path d="M48.5457 95.7596C48.3565 101.144 44.2033 105.368 39.2683 105.195C34.3332 105.022 30.4859 100.517 30.6742 95.1335C30.8625 89.7502 35.0166 85.5254 39.9517 85.6984C44.8868 85.8714 48.735 90.3763 48.5457 95.7596Z" fill="#954714"/>
<path d="M102.484 43.3811L79.9062 42.6537C39.3839 45.4008 42.6462 67.9902 41.8643 90.2891L41.6301 96.9542C40.8483 119.253 58.2915 137.964 80.5905 138.746L97.9172 139.353C120.216 140.134 138.927 122.691 139.709 100.392L139.942 93.7273C140.725 71.4284 147.875 44.4784 102.484 43.3811Z" fill="#CC691F"/>
<path d="M104.527 77.0737C106.435 76.83 108.389 76.8768 110.301 77.067C111.242 77.1607 112.172 77.3251 113.093 77.5354C114.012 77.7447 115.04 78.2551 115.98 78.0391C116.648 77.8862 116.747 77.0756 116.356 76.6158C115.719 75.8693 114.356 75.7164 113.433 75.5252C112.435 75.3178 111.419 75.1764 110.403 75.0894C108.351 74.9125 106.333 75.1104 104.307 75.4564C103.404 75.6103 103.605 77.1913 104.527 77.0737Z" fill="#4F0200"/>
<path d="M74.8373 74.9098C72.7736 74.7511 70.7491 74.7826 68.7093 75.1496C67.7105 75.3293 66.7192 75.5702 65.7519 75.879C64.7932 76.1858 63.6127 76.4506 63.0125 77.3032C62.5967 77.8949 63.1769 78.5104 63.7475 78.584C64.2646 78.6509 64.6785 78.4349 65.1459 78.2542C65.5885 78.0841 66.0358 77.9283 66.4879 77.783C67.3902 77.4924 68.3079 77.2506 69.2379 77.0671C71.076 76.7029 72.9638 76.4907 74.8373 76.5557C75.9059 76.593 75.883 74.99 74.8373 74.9098Z" fill="#4F0200"/>
<path d="M81.4632 109.333C89.3241 107.967 90.1729 113.814 93.3224 112.979C96.4729 112.143 99.7065 106.961 104.433 109.963C109.16 112.966 108.996 130.169 87.9553 128.038C73.2334 126.545 73.6023 110.698 81.4632 109.333Z" fill="#681900"/>
<path d="M106.933 115.695C104.72 115.253 102.36 115.124 99.9302 115.397C92.0234 116.286 85.6938 121.017 83.4581 126.985C84.7676 127.495 86.2568 127.866 87.9563 128.038C102.601 129.521 107.126 121.638 106.933 115.695Z" fill="#FFAC9F"/>
<path d="M78.7381 110.592C80.7846 115.752 86.88 119.091 93.6426 118.332C98.9725 117.732 103.333 114.74 105.36 110.817C105.078 110.47 104.771 110.177 104.433 109.963C99.7066 106.961 96.4729 112.143 93.3224 112.979C90.172 113.815 89.3241 107.967 81.4632 109.333C80.4137 109.515 79.5028 109.962 78.7381 110.592Z" fill="#F7FFFA"/>
<path d="M158.485 61.2861C158.485 57.2199 155.892 53.6824 152.064 51.829C153.759 49.8953 154.793 47.368 154.793 44.5951C154.793 38.5236 149.871 33.602 143.8 33.602C142.823 33.602 141.881 33.7415 140.98 33.9805C140.982 33.9069 140.992 33.8362 140.992 33.7626C140.992 29.5129 137.653 26.0451 133.433 25.766C133.436 25.6761 133.448 25.5882 133.448 25.4983C133.448 19.4268 127.7 14.5052 120.609 14.5052C117.185 14.5052 114.083 15.6598 111.781 17.5304C111.765 11.1597 105.378 5.99908 97.4985 5.99908C94.0498 5.99908 90.8869 6.9884 88.4189 8.63436C86.359 6.3432 83.2143 4.87598 79.6843 4.87598C73.4799 4.87598 68.4503 9.40286 68.4503 14.9869C68.4503 15.4935 68.5057 15.9867 68.585 16.4732C64.4529 16.782 60.9946 18.86 59.4815 21.7161C57.5756 20.9074 55.4172 20.4429 53.1232 20.4429C45.6456 20.4429 39.5654 25.2995 39.2691 31.3777C39.099 31.371 38.9317 31.3557 38.7596 31.3557C32.9098 31.3557 28.1669 35.3435 28.1669 40.2632C28.1669 42.6414 29.2824 44.7968 31.089 46.395C27.95 47.7466 25.7592 50.7775 25.7592 54.3065C25.7592 57.4981 27.5533 60.2786 30.2172 61.7831C28.7854 62.8671 27.8458 64.5694 27.8458 66.504C27.8458 68.5677 28.9001 70.3819 30.4982 71.4467C28.0264 73.2647 26.4015 76.3387 26.4015 79.8247C26.4015 85.4087 30.569 89.9356 35.7096 89.9356C36.1789 89.9356 36.6367 89.8859 37.0879 89.8123C37.0267 90.467 36.9932 91.1457 36.9932 91.8406C36.9932 97.2669 38.9632 101.667 41.393 101.667C43.8228 101.667 45.7928 97.2669 45.7928 91.8406C45.7928 90.7614 45.7116 89.7263 45.5682 88.7551C47.4436 87.4389 48.7091 84.9776 48.7091 82.1512C48.7091 79.4462 47.5487 77.0757 45.8052 75.7232C47.0927 74.5962 47.9071 73.0095 47.9071 71.2383C47.9071 69.3964 47.021 67.7619 45.6437 66.6302C48.9222 65.4 51.2775 62.0766 51.2775 58.1586C51.2775 57.6596 51.2297 57.174 51.1561 56.6971C51.2765 56.7019 51.396 56.7143 51.5183 56.7143C54.9298 56.7143 57.8222 54.6974 58.8736 51.894C60.251 52.5095 61.8138 52.8622 63.475 52.8622C65.2242 52.8622 66.8664 52.4732 68.2945 51.7955C69.5084 55.1199 72.8873 57.5162 76.8761 57.5162C77.4372 57.5162 77.9839 57.4618 78.5173 57.371C80.1078 61.3989 84.0497 64.2559 88.6722 64.2559C94.0355 64.2559 98.4859 60.4124 99.4035 55.3503C100.136 55.5042 100.894 55.5893 101.673 55.5893C105.591 55.5893 109.009 53.5342 110.889 50.4726C112.33 51.1752 113.972 51.5776 115.716 51.5776C117.481 51.5776 119.141 51.1685 120.595 50.4497C121.294 52.5869 122.743 54.3342 124.605 55.3293C123.112 57.0526 122.216 59.1957 122.216 61.527C122.216 65.5711 124.888 69.059 128.763 70.7346C128.068 72.1473 127.672 73.7675 127.672 75.4899C127.672 79.2015 129.511 82.4313 132.231 84.1422C132.634 85.5607 133.56 86.8291 134.852 87.8289C134.762 89.0037 134.923 90.1851 135.386 91.2766C135.581 91.7364 135.853 92.157 136.153 92.5556C136.318 97.6474 138.215 101.666 140.537 101.666C142.686 101.666 144.473 98.2218 144.857 93.671C145.914 92.5116 146.459 90.858 146.251 89.3468C149.229 88.2629 151.383 86.0931 151.817 83.5104C155.396 81.0434 156.582 75.8732 154.404 71.3425C154.156 70.8264 153.866 70.3456 153.554 69.8887C156.546 67.9091 158.485 64.7969 158.485 61.2861Z" fill="#4D2A22"/>
<path d="M143.591 40.1648C149.322 40.5605 151.496 49.6506 146.95 50.441C142.404 51.2315 137.859 39.77 143.591 40.1648Z" fill="#6C4B41"/>
<path d="M137.267 45.3034C140.231 45.5012 143.393 53.4061 139.242 53.603C135.093 53.8008 134.303 45.1055 137.267 45.3034Z" fill="#6C4B41"/>
<path d="M132.128 48.8601C134.105 48.2674 137.266 54.7882 134.302 55.1839C131.339 55.5797 130.152 49.4536 132.128 48.8601Z" fill="#6C4B41"/>
<path d="M51.46 25.5862C57.003 27.4338 56.31 34.5941 47.3031 35.0558C38.2942 35.5174 45.9171 23.7376 51.46 25.5862Z" fill="#6C4B41"/>
<path d="M60.0054 31.3605C62.0844 34.1325 59.3124 38.9824 54.9241 37.5965C50.5358 36.2105 57.9274 28.5886 60.0054 31.3605Z" fill="#6C4B41"/>
<path d="M64.9462 35.5929C67.6445 36.3633 66.2949 40.9887 63.4044 40.6035C60.5139 40.2183 62.2488 34.8216 64.9462 35.5929Z" fill="#6C4B41"/>
<path d="M109.018 107.672C114.629 107.665 119.172 103.111 119.165 97.501L119.158 92.1225C119.151 86.5117 114.597 81.9695 108.987 81.9762C103.376 81.9829 98.8329 86.5375 98.8406 92.1483L98.8473 97.5268C98.854 103.137 103.408 107.679 109.018 107.672Z" fill="#F7FFFA"/>
<path d="M98.8406 92.1474C98.8368 89.1116 100.172 86.3922 102.281 84.5283C103.083 84.2368 103.929 84.0734 104.806 84.0724C109.756 84.0657 113.776 89.0112 113.783 95.1162C113.791 101.222 109.784 106.176 104.834 106.183C104.385 106.184 103.947 106.13 103.515 106.052C100.713 104.246 98.8511 101.106 98.8463 97.5259L98.8406 92.1474Z" fill="#4D2A22"/>
<path d="M71.1477 107.67C65.5378 107.75 60.9258 103.266 60.8465 97.6558L60.771 92.2783C60.6917 86.6684 65.1755 82.0564 70.7864 81.9771C76.3963 81.8978 81.0092 86.3816 81.0876 91.9915L81.1631 97.3691C81.2415 102.98 76.7576 107.592 71.1477 107.67Z" fill="#F7FFFA"/>
<path d="M81.0867 91.9915C81.0437 88.9557 79.6672 86.2574 77.53 84.426C76.7242 84.1469 75.8754 83.9968 74.9979 84.0093C70.0485 84.079 66.1047 89.0848 66.1907 95.1898C66.2767 101.295 70.3592 106.188 75.3095 106.118C75.7588 106.112 76.1956 106.052 76.6267 105.967C79.4005 104.118 81.2138 100.951 81.1631 97.37L81.0867 91.9915Z" fill="#4D2A22"/>
<path d="M90.6299 97.7735C90.2169 98.5649 89.7706 99.3468 89.3901 100.154C89.6386 100.121 89.8872 100.089 90.1357 100.057C89.783 99.6068 89.4207 99.1585 89.0231 98.7465C88.8281 98.5439 88.6283 98.3451 88.4276 98.1482C88.2268 97.9512 87.9888 97.7524 87.8703 97.4953C87.7336 97.1971 87.2509 97.286 87.1802 97.5852C87.097 97.9331 87.0703 98.304 87.0311 98.6595C86.9957 98.9845 86.9785 99.3105 86.967 99.6374C86.9556 99.9633 86.9508 100.289 86.9527 100.616C86.9556 100.976 86.9154 101.394 87.0836 101.72C87.2547 102.054 87.7011 101.921 87.8139 101.625C87.9286 101.324 87.8464 100.932 87.8388 100.615C87.8311 100.289 87.8302 99.9623 87.8369 99.6364C87.8502 98.9864 87.9238 98.3336 87.9219 97.6846C87.7327 97.7935 87.5434 97.9016 87.3532 98.0105C87.5931 98.13 87.7728 98.3785 87.9362 98.5878C88.1054 98.8039 88.267 99.0256 88.4266 99.2493C88.7525 99.7071 89.0833 100.159 89.3901 100.63C89.5813 100.923 90.0248 100.952 90.2102 100.63C90.6556 99.8572 91.0428 99.0438 91.4557 98.2533C91.5752 98.0249 91.514 97.7343 91.2846 97.5995C91.0686 97.4762 90.7493 97.5431 90.6299 97.7735Z" fill="#4F0200"/>
<path opacity="0.61" d="M69.1577 116.274C68.567 120.054 64.0592 122.49 59.0907 121.713C54.1222 120.935 50.5731 117.241 51.1639 113.461C51.7546 109.679 56.2623 107.245 61.2308 108.022C66.2003 108.799 69.7494 112.493 69.1577 116.274Z" fill="#FCA691"/>
<path opacity="0.61" d="M130.038 111.564C130.816 115.311 127.454 119.177 122.529 120.2C117.605 121.221 112.982 119.013 112.205 115.266C111.427 111.52 114.789 107.654 119.713 106.632C124.637 105.61 129.26 107.818 130.038 111.564Z" fill="#FCA691"/>
</svg>
