<svg width="181" height="180" viewBox="0 0 181 180" fill="none" xmlns="http://www.w3.org/2000/svg">
<path d="M90.8281 173.196C113.676 173.196 132.198 159.217 132.198 141.973C132.198 124.729 113.676 110.75 90.8281 110.75C67.98 110.75 49.458 124.729 49.458 141.973C49.458 159.217 67.98 173.196 90.8281 173.196Z" fill="#4D2A22"/>
<path d="M90.5031 180C105.351 180 119.346 176.382 131.691 170.014C130.821 166.237 128.24 156.432 123.725 150.465C116.121 140.417 73.9334 137.424 64.1561 148.83C59.0757 154.757 55.303 167.242 53.9399 172.236C65.1167 177.212 77.4816 180 90.5031 180Z" fill="#F4B306"/>
<path d="M93.9183 149.061C93.5771 148.947 87.8086 157.387 85.0796 155.682C82.3507 153.976 78.0474 144.673 79.9811 142.853C81.9148 141.033 105.474 141.208 105.885 143.675C106.205 145.596 104.155 157.155 101.197 156.586C98.2397 156.017 93.9183 149.061 93.9183 149.061Z" fill="#F7FFFA"/>
<path d="M63.1371 150.137C62.8705 150.505 62.6076 150.885 62.3495 151.284C62.3084 151.347 62.2683 151.414 62.2281 151.478C61.9959 151.842 61.7674 152.218 61.5428 152.603C61.4921 152.69 61.4415 152.775 61.3908 152.862C61.1461 153.289 60.9062 153.728 60.6701 154.175C60.6156 154.277 60.563 154.382 60.5095 154.485C60.2973 154.895 60.088 155.312 59.8834 155.734C59.8509 155.801 59.8175 155.867 59.7859 155.934C59.5623 156.401 59.3443 156.876 59.1302 157.353C59.0748 157.477 59.0203 157.601 58.9649 157.725C58.7536 158.204 58.5462 158.685 58.3455 159.167C58.3244 159.219 58.3034 159.271 58.2824 159.321C58.095 159.773 57.9144 160.227 57.7366 160.679C57.6888 160.799 57.641 160.92 57.5942 161.041C57.4087 161.519 57.2281 161.996 57.0541 162.468C57.0178 162.566 56.9834 162.663 56.948 162.76C56.7941 163.182 56.6441 163.601 56.4988 164.015C56.4663 164.106 56.4338 164.198 56.4013 164.29C56.2397 164.755 56.0839 165.212 55.9339 165.661C55.8985 165.768 55.8641 165.872 55.8297 165.977C55.6863 166.409 55.5477 166.834 55.4168 167.246C55.4091 167.271 55.4005 167.297 55.3929 167.321C55.2523 167.763 55.1204 168.19 54.9933 168.604C54.9685 168.687 54.9427 168.77 54.9178 168.851C54.7935 169.259 54.675 169.657 54.5651 170.032C54.5622 170.04 54.5603 170.049 54.5574 170.057C54.4418 170.452 54.3347 170.825 54.2363 171.175C54.2305 171.196 54.2239 171.217 54.2181 171.237C54.1178 171.594 54.0241 171.929 53.9409 172.233C58.7192 174.361 63.726 176.06 68.8971 177.341C69.0204 163.14 66.7646 152.536 64.9609 148.008C64.678 148.274 64.3998 148.542 64.157 148.826C63.8732 149.158 63.595 149.515 63.3197 149.885C63.2585 149.971 63.1974 150.053 63.1371 150.137Z" fill="#FDC59D"/>
<path d="M131.296 168.38C131.29 168.357 131.284 168.335 131.279 168.312C131.203 168.017 131.122 167.703 131.035 167.377C131.023 167.33 131.009 167.282 130.997 167.235C130.911 166.913 130.82 166.58 130.722 166.234C130.719 166.222 130.716 166.209 130.712 166.197C130.616 165.856 130.513 165.502 130.406 165.141C130.381 165.057 130.356 164.973 130.33 164.888C130.222 164.527 130.11 164.159 129.991 163.782C129.975 163.732 129.958 163.68 129.941 163.629C129.834 163.293 129.723 162.95 129.607 162.604C129.575 162.509 129.545 162.415 129.512 162.32C129.383 161.938 129.249 161.552 129.11 161.163C129.078 161.074 129.045 160.984 129.012 160.896C128.884 160.541 128.751 160.185 128.615 159.827C128.589 159.759 128.564 159.691 128.537 159.622C128.384 159.227 128.225 158.829 128.061 158.431C128.018 158.327 127.975 158.224 127.931 158.12C127.762 157.715 127.588 157.31 127.407 156.908C127.39 156.871 127.373 156.834 127.356 156.797C127.185 156.418 127.008 156.044 126.827 155.671C126.783 155.581 126.74 155.49 126.695 155.4C126.502 155.009 126.303 154.62 126.099 154.238C126.06 154.165 126.02 154.095 125.98 154.022C125.791 153.675 125.598 153.332 125.4 152.997C125.364 152.935 125.329 152.873 125.293 152.813C125.072 152.445 124.846 152.086 124.614 151.734C124.564 151.658 124.512 151.583 124.462 151.508C124.221 151.151 123.975 150.8 123.722 150.465C123.72 150.463 123.717 150.46 123.714 150.457C123.46 150.122 123.164 149.797 122.836 149.479C122.774 149.419 122.698 149.362 122.634 149.302C122.342 149.035 122.036 148.771 121.694 148.516C121.645 148.478 121.588 148.442 121.538 148.405C121.154 148.126 120.749 147.852 120.31 147.587C120.292 147.576 120.272 147.565 120.253 147.554C119.775 147.268 119.268 146.99 118.731 146.721C115.874 153.648 116.433 166.288 117.675 175.799C122.536 174.256 127.22 172.319 131.686 170.014C131.586 169.554 131.453 169.001 131.296 168.38Z" fill="#FDC59D"/>
<path d="M96.8834 135.753L97.649 145.274L93.7233 148.996L89.8522 145.459L89.3953 135.661L96.8834 135.753Z" fill="#FDC59D"/>
<path d="M96.8834 135.753L89.3953 135.661L89.7011 142.21L97.4244 142.482L96.8834 135.753Z" fill="#EEA47D"/>
<path d="M155.572 101.13C155.251 110.261 148.207 117.425 139.837 117.132C131.467 116.838 124.941 109.198 125.262 100.067C125.582 90.9358 132.626 83.7718 140.997 84.0652C149.365 84.3596 155.892 91.9987 155.572 101.13Z" fill="#FDC59D"/>
<path d="M152.467 100.808C152.278 106.192 148.125 110.416 143.19 110.243C138.255 110.07 134.406 105.565 134.596 100.182C134.785 94.7974 138.938 90.5736 143.873 90.7466C148.808 90.9196 152.656 95.4245 152.467 100.808Z" fill="#EEA47D"/>
<path d="M55.0478 96.1232C54.7276 105.254 47.683 112.418 39.3126 112.125C30.9432 111.831 24.4167 104.191 24.7369 95.0603C25.0571 85.9301 32.1017 78.7651 40.4721 79.0595C48.8424 79.353 55.368 86.9921 55.0478 96.1232Z" fill="#FDC59D"/>
<path d="M48.5451 95.76C48.3559 101.144 44.2027 105.368 39.2677 105.195C34.3326 105.022 30.4853 100.517 30.6736 95.1339C30.8619 89.7507 35.016 85.5258 39.9511 85.6989C44.8861 85.8719 48.7334 90.3767 48.5451 95.76Z" fill="#EEA47D"/>
<path d="M100.981 48.1687L83.6544 47.5618C43.1321 50.3088 42.6446 67.9909 41.8627 90.2906L41.6286 96.9557C40.8467 119.254 58.29 137.965 80.589 138.747L97.9157 139.354C120.215 140.136 138.925 122.693 139.707 100.394L139.941 93.7288C140.724 71.4291 146.371 49.2651 100.981 48.1687Z" fill="#FDC59D"/>
<path d="M104.934 77.9948C106.808 77.9394 108.693 78.1621 110.529 78.5358C111.442 78.7213 112.342 78.9621 113.228 79.2498C113.672 79.3941 114.111 79.548 114.546 79.7163C115.037 79.9065 115.472 80.1483 116.015 80.0805C116.589 80.0088 117.161 79.3913 116.75 78.7996C116.163 77.9556 114.997 77.6861 114.055 77.3773C113.075 77.0562 112.072 76.8067 111.058 76.6184C109.019 76.2408 107 76.1997 104.934 76.3488C103.889 76.4234 103.864 78.0263 104.934 77.9948Z" fill="#4F0200"/>
<path d="M74.2527 76.821C72.211 76.9653 70.2037 77.2597 68.2595 77.9154C67.295 78.2404 66.3459 78.6256 65.4263 79.0634C64.5689 79.4715 63.2843 79.9398 62.8436 80.8269C62.5645 81.3879 62.8981 82.1154 63.5787 82.1077C64.5231 82.0972 65.3795 81.3612 66.2044 80.9463C67.0446 80.5239 67.9029 80.1482 68.7881 79.8328C70.544 79.2058 72.3973 78.6772 74.2527 78.4679C74.6943 78.4182 75.0756 78.1257 75.0756 77.6449C75.0756 77.2234 74.699 76.7894 74.2527 76.821Z" fill="#4F0200"/>
<path d="M79.4381 99.3519C77.1355 102.201 57.1592 96.6211 58.7794 94.3892C60.3986 92.1564 81.0296 97.382 79.4381 99.3519Z" fill="#4D2A22"/>
<path d="M100.47 99.3519C102.772 102.201 122.749 96.6211 121.129 94.3892C119.509 92.1564 98.8783 97.382 100.47 99.3519Z" fill="#4D2A22"/>
<path d="M81.9397 104.949C81.9397 104.949 91.849 111.148 97.2075 103.812L81.9397 104.949Z" fill="#4F0200"/>
<path d="M120.656 24.0969C80.524 15.3825 30.5312 18.8225 33.9703 80.5105C33.9703 80.5105 36.7069 83.4545 39.0669 88.7164C40.0237 90.8489 43.0471 108.054 43.4657 88.1161C43.5756 82.8896 45.2235 76.8133 46.7873 71.1605C71.692 76.0133 110.975 60.7743 119.44 54.353C114.233 59.937 101.805 70.3633 80.5622 71.8544C80.5622 71.8544 114.348 73.3207 128.37 56.6986C135.748 66.8649 137.372 100.005 139.461 100.005C141.775 100.005 140.149 84.8691 149.289 86.6623C149.289 86.6623 158.886 32.3993 120.656 24.0969Z" fill="#6C4B41"/>
<path d="M70.1865 36.5324C73.2557 38.6993 67.1173 43.2127 64.048 42.1298C60.9778 41.0458 67.1173 34.3655 70.1865 36.5324Z" fill="#7C5850"/>
<path d="M67.1976 28.1277C70.3672 32.0179 61.3411 39.0414 56.5503 36.3794C51.7587 33.7174 63.9305 24.1179 67.1976 28.1277Z" fill="#7C5850"/>
<path d="M90.6283 97.7739C90.2154 98.5654 89.7681 99.3472 89.3886 100.154C89.6371 100.121 89.8857 100.09 90.1342 100.057C89.7815 99.6073 89.4192 99.159 89.0216 98.747C88.8266 98.5444 88.6268 98.3455 88.4261 98.1486C88.2254 97.9517 87.9873 97.7529 87.8688 97.4958C87.7321 97.1976 87.2504 97.2865 87.1787 97.5857C87.0955 97.9336 87.0688 98.3044 87.0296 98.66C86.9942 98.985 86.977 99.3109 86.9646 99.6378C86.9531 99.9638 86.9483 100.29 86.9502 100.617C86.9531 100.976 86.913 101.395 87.0812 101.721C87.2523 102.054 87.6987 101.921 87.8115 101.625C87.9262 101.325 87.844 100.932 87.8363 100.616C87.8287 100.29 87.8277 99.9628 87.8344 99.6369C87.8478 98.9869 87.9214 98.3341 87.9195 97.6851C87.7302 97.794 87.541 97.902 87.3508 98.011C87.5907 98.1305 87.7704 98.379 87.9338 98.5883C88.103 98.8043 88.2645 99.0261 88.4242 99.2498C88.7501 99.7076 89.0808 100.16 89.3877 100.631C89.5788 100.923 90.0224 100.952 90.2078 100.631C90.6532 99.8577 91.0403 99.0443 91.4533 98.2538C91.5727 98.0253 91.5116 97.7348 91.2822 97.6C91.0671 97.4767 90.7488 97.5436 90.6283 97.7739Z" fill="#4F0200"/>
<path opacity="0.61" d="M70.6607 115.994C70.0699 119.774 65.5622 122.21 60.5936 121.433C55.6251 120.656 52.0761 116.961 52.6668 113.18C53.2575 109.399 57.7653 106.964 62.7338 107.741C67.7033 108.519 71.2523 112.214 70.6607 115.994Z" fill="#FCA691"/>
<path opacity="0.61" d="M129.526 111.285C130.304 115.032 126.942 118.897 122.017 119.92C117.093 120.942 112.47 118.734 111.693 114.987C110.915 111.24 114.277 107.374 119.202 106.352C124.125 105.33 128.748 107.538 129.526 111.285Z" fill="#FCA691"/>
</svg>
