<svg width="181" height="180" viewBox="0 0 181 180" fill="none" xmlns="http://www.w3.org/2000/svg">
<path d="M78.8266 16.8819C78.8266 16.8819 17.6627 10.3888 25.3649 84.1326C25.3649 84.1326 -0.460182 122.628 19.9281 137.005C19.9281 137.005 19.475 149.528 32.6141 152.31C32.6141 152.31 28.9895 148.6 30.3487 141.18C30.3487 141.18 30.8018 151.383 38.5041 152.774C38.5041 152.774 36.6918 149.528 36.2387 145.353C36.2387 145.353 44.8471 167.615 85.1705 166.687C125.494 165.759 139.644 149.171 139.644 149.171C139.644 149.171 150.971 146.853 155.502 134.794C155.502 134.794 154.143 147.316 150.971 146.853C150.971 146.853 168.641 141.751 166.829 128.3C165.016 114.851 159.127 112.068 159.127 112.068C159.127 112.068 169.894 53.5215 143.617 27.0856C112.512 -4.20603 78.8266 16.8819 78.8266 16.8819Z" fill="#6C4B41"/>
<path d="M150.97 146.853C151.282 146.899 151.576 146.814 151.853 146.633C151.864 146.605 151.875 146.578 151.885 146.551C151.313 146.752 150.97 146.853 150.97 146.853Z" fill="#4D2A22"/>
<path d="M154.931 136.118C156.946 125.922 156.221 114.583 148.803 104.306C128.828 76.6264 31.5207 93.1769 31.5207 93.1769C31.5207 93.1769 16.3552 132.143 30.7225 151.807C31.3219 151.996 31.946 152.168 32.6142 152.31C32.6142 152.31 28.9896 148.599 30.3488 141.179C30.3488 141.179 30.8019 151.382 38.5041 152.773C38.5041 152.773 36.6918 149.527 36.2387 145.352C36.2387 145.352 44.8471 167.614 85.1696 166.686C125.493 165.759 139.644 149.171 139.644 149.171C139.644 149.171 150.098 147.002 154.931 136.118Z" fill="#4D2A22"/>
<path d="M90.5032 179.999C105.351 179.999 119.346 176.382 131.691 170.014C130.821 166.236 128.24 156.431 123.726 150.464C116.122 140.416 73.9345 137.423 64.1571 148.829C59.0768 154.756 55.304 167.242 53.941 172.235C65.1168 177.211 77.4807 179.999 90.5032 179.999Z" fill="#F9F1E4"/>
<path d="M95.7116 179.847V146.229H92.0813V179.976C93.2962 179.955 94.5082 179.915 95.7116 179.847Z" fill="#E3D5BD"/>
<path d="M93.9185 149.059C93.5772 148.946 87.8087 157.386 85.0788 155.681C82.3498 153.974 78.0466 144.672 79.9803 142.852C81.9139 141.032 105.473 141.207 105.884 143.674C106.204 145.595 104.154 157.154 101.196 156.585C98.2399 156.016 93.9185 149.059 93.9185 149.059Z" fill="#F7FFFA"/>
<path d="M63.1373 150.136C62.8706 150.504 62.6077 150.884 62.3497 151.283C62.3086 151.346 62.2684 151.412 62.2283 151.476C61.996 151.84 61.7676 152.216 61.5429 152.601C61.4923 152.688 61.4416 152.773 61.391 152.86C61.1463 153.287 60.9063 153.726 60.6702 154.173C60.6158 154.276 60.5632 154.38 60.5097 154.483C60.2975 154.893 60.0881 155.31 59.8836 155.732C59.8511 155.799 59.8176 155.865 59.7861 155.932C59.5624 156.4 59.3445 156.875 59.1304 157.352C59.0749 157.475 59.0204 157.599 58.965 157.723C58.7538 158.202 58.5463 158.683 58.3456 159.166C58.3246 159.217 58.3035 159.269 58.2825 159.32C58.0961 159.772 57.9145 160.225 57.7367 160.677C57.6899 160.798 57.6411 160.919 57.5953 161.039C57.4098 161.517 57.2292 161.994 57.0552 162.466C57.0189 162.565 56.9845 162.661 56.9482 162.759C56.7943 163.18 56.6442 163.599 56.4989 164.013C56.4664 164.105 56.4339 164.197 56.4024 164.288C56.2408 164.753 56.085 165.211 55.935 165.66C55.8996 165.766 55.8652 165.87 55.8308 165.975C55.6884 166.407 55.5488 166.833 55.4179 167.245C55.4102 167.269 55.4016 167.295 55.394 167.319C55.2535 167.762 55.1215 168.188 54.9944 168.603C54.9696 168.685 54.9437 168.768 54.9189 168.85C54.7946 169.258 54.6761 169.655 54.5662 170.03C54.5633 170.039 54.5614 170.047 54.5585 170.056C54.4429 170.45 54.3358 170.822 54.2374 171.173C54.2316 171.194 54.225 171.215 54.2192 171.236C54.1189 171.594 54.0252 171.927 53.942 172.232C58.7203 174.36 63.7271 176.06 68.8982 177.34C69.0215 163.139 66.7657 152.535 64.962 148.008C64.6791 148.275 64.4009 148.543 64.1572 148.826C63.8733 149.157 63.5951 149.516 63.3199 149.885C63.2587 149.971 63.1975 150.052 63.1373 150.136Z" fill="#FDC59D"/>
<path d="M131.295 168.379C131.289 168.356 131.283 168.334 131.278 168.311C131.202 168.015 131.121 167.703 131.034 167.377C131.022 167.33 131.008 167.282 130.996 167.234C130.91 166.912 130.819 166.579 130.721 166.233C130.718 166.221 130.715 166.209 130.711 166.196C130.615 165.856 130.512 165.501 130.405 165.14C130.38 165.056 130.355 164.972 130.33 164.887C130.222 164.525 130.109 164.157 129.99 163.781C129.974 163.73 129.957 163.678 129.941 163.628C129.833 163.291 129.722 162.948 129.606 162.602C129.574 162.507 129.544 162.414 129.511 162.318C129.382 161.937 129.248 161.551 129.109 161.162C129.077 161.073 129.044 160.983 129.011 160.894C128.883 160.54 128.75 160.184 128.614 159.825C128.588 159.758 128.563 159.69 128.536 159.621C128.383 159.225 128.224 158.827 128.06 158.43C128.017 158.326 127.974 158.222 127.93 158.118C127.761 157.713 127.587 157.309 127.407 156.906C127.389 156.869 127.372 156.833 127.355 156.795C127.184 156.418 127.007 156.042 126.826 155.669C126.782 155.579 126.739 155.489 126.694 155.399C126.501 155.007 126.303 154.619 126.098 154.237C126.059 154.164 126.02 154.093 125.979 154.021C125.79 153.674 125.597 153.33 125.399 152.995C125.363 152.934 125.329 152.872 125.292 152.811C125.071 152.442 124.845 152.083 124.613 151.732C124.562 151.657 124.511 151.581 124.461 151.507C124.22 151.149 123.974 150.798 123.721 150.464C123.719 150.461 123.716 150.458 123.713 150.455C123.459 150.121 123.164 149.796 122.835 149.477C122.773 149.417 122.698 149.36 122.633 149.301C122.342 149.033 122.036 148.769 121.693 148.514C121.644 148.477 121.587 148.44 121.537 148.403C121.153 148.124 120.748 147.85 120.309 147.586C120.29 147.574 120.271 147.564 120.252 147.552C119.774 147.266 119.267 146.988 118.73 146.72C115.873 153.647 116.432 166.287 117.675 175.798C122.536 174.255 127.219 172.317 131.686 170.014C131.585 169.553 131.453 169.001 131.295 168.379Z" fill="#FDC59D"/>
<path d="M96.8835 135.752L97.6482 145.273L93.7234 148.995L89.8523 145.458L89.3944 135.66L96.8835 135.752Z" fill="#FDC59D"/>
<path d="M96.8835 135.752L89.3944 135.66L89.7003 142.209L97.4245 142.48L96.8835 135.752Z" fill="#EEA47D"/>
<path d="M155.571 101.129C155.251 110.26 148.206 117.424 139.837 117.13C131.466 116.837 124.941 109.197 125.261 100.067C125.581 90.9354 132.626 83.7713 140.996 84.0647C149.365 84.3582 155.891 91.9973 155.571 101.129Z" fill="#FDC59D"/>
<path d="M152.467 100.806C152.278 106.191 148.125 110.415 143.19 110.242C138.255 110.069 134.406 105.565 134.596 100.18C134.785 94.797 138.938 90.5721 143.873 90.7451C148.808 90.9181 152.655 95.423 152.467 100.806Z" fill="#EEA47D"/>
<path d="M55.0479 96.1218C54.7277 105.253 47.6831 112.417 39.3127 112.124C30.9433 111.83 24.4177 104.19 24.7369 95.0599C25.0571 85.9287 32.1017 78.7646 40.4721 79.058C48.8425 79.3515 55.3681 86.9906 55.0479 96.1218Z" fill="#FDC59D"/>
<path d="M48.5443 95.7596C48.355 101.143 44.2019 105.368 39.2668 105.195C34.3318 105.022 30.4845 100.517 30.6728 95.1335C30.8611 89.7492 35.0152 85.5254 39.9502 85.6984C44.8853 85.8714 48.7335 90.3753 48.5443 95.7596Z" fill="#EEA47D"/>
<path d="M100.981 48.1669L83.6546 47.559C43.1323 50.3061 42.6448 67.9883 41.8629 90.2883L41.6287 96.9534C40.8469 119.252 58.2901 137.963 80.5891 138.745L97.9158 139.352C120.215 140.134 138.926 122.691 139.707 100.392L139.941 93.7265C140.724 71.4275 146.371 49.2632 100.981 48.1669Z" fill="#FDC59D"/>
<path d="M82.6089 107.322C82.6089 107.322 93.388 111.843 97.4934 103.738L82.6089 107.322Z" fill="#4F0200"/>
<path d="M120.656 24.0957C80.5241 15.3812 30.5313 18.8213 33.9704 80.5099C33.9704 80.5099 36.707 83.4539 39.067 88.7159C40.0238 90.8484 43.1533 90.4316 43.4659 88.1146C44.1646 82.9339 45.2237 76.8117 46.7874 71.1588C72.4788 70.3941 81.4045 50.7992 81.4045 50.7992C79.5501 57.7521 59.1533 75.3674 59.1533 75.3674C80.9399 73.5131 104.118 52.19 104.118 52.19L95.7747 66.5602C113.129 63.1861 119.194 57.4319 121.026 52.6842C123.027 53.1611 124.656 53.6888 125.763 54.2642C135.404 59.2776 137.147 100.004 139.461 100.004C141.775 100.004 140.149 84.8686 149.289 86.6618C149.289 86.6598 158.887 32.3972 120.656 24.0957Z" fill="#6C4B41"/>
<path d="M70.1866 36.5304C73.2558 38.6973 67.1174 43.2109 64.0472 42.1279C60.978 41.0439 67.1164 34.3635 70.1866 36.5304Z" fill="#7C5850"/>
<path d="M67.1968 28.1256C70.3664 32.0159 61.3403 39.0395 56.5496 36.3774C51.7579 33.7154 63.9306 24.1158 67.1968 28.1256Z" fill="#7C5850"/>
<path d="M109.017 107.671C114.628 107.665 119.17 103.11 119.163 97.4992L119.157 92.1206C119.15 86.5098 114.595 81.9676 108.986 81.9743C103.375 81.9809 98.8315 86.5356 98.8392 92.1464L98.8459 97.525C98.8526 103.136 103.406 107.679 109.017 107.671Z" fill="#F7FFFA"/>
<path d="M98.8392 92.1463C98.8354 89.1105 100.171 86.3911 102.279 84.5272C103.081 84.2357 103.927 84.0723 104.805 84.0713C109.755 84.0646 113.774 89.0102 113.782 95.1152C113.79 101.221 109.783 106.175 104.832 106.182C104.383 106.183 103.945 106.129 103.513 106.051C100.712 104.245 98.8497 101.106 98.8449 97.5249L98.8392 92.1463Z" fill="#4D2A22"/>
<path d="M71.1463 107.67C65.5364 107.75 60.9244 103.266 60.8451 97.656L60.7696 92.2784C60.6903 86.6685 65.1741 82.0566 70.785 81.9772C76.3949 81.8979 81.0078 86.3818 81.0862 91.9926L81.1617 97.3702C81.24 102.979 76.7562 107.591 71.1463 107.67Z" fill="#F7FFFA"/>
<path d="M81.0853 91.9907C81.0423 88.9549 79.6658 86.2566 77.5286 84.4252C76.7228 84.1461 75.874 83.996 74.9965 84.0084C70.0471 84.0782 66.1033 89.084 66.1893 95.189C66.2753 101.294 70.3578 106.187 75.3081 106.117C75.7574 106.111 76.1942 106.05 76.6253 105.966C79.3991 104.118 81.2124 100.95 81.1617 97.3693L81.0853 91.9907Z" fill="#4D2A22"/>
<path d="M90.6285 97.7725C90.2156 98.564 89.7692 99.3459 89.3888 100.153C89.6373 100.121 89.8858 100.089 90.1343 100.057C89.7816 99.6068 89.4194 99.1585 89.0217 98.7466C88.8267 98.5439 88.6269 98.3451 88.4262 98.1492C88.2255 97.9523 87.9875 97.7534 87.869 97.4963C87.7323 97.1981 87.2496 97.287 87.1788 97.5862C87.0957 97.9341 87.0689 98.3049 87.0297 98.6605C86.9944 98.9855 86.9772 99.3115 86.9657 99.6384C86.9542 99.9643 86.9494 100.29 86.9513 100.617C86.9542 100.977 86.9141 101.395 87.0823 101.722C87.2534 102.055 87.6998 101.923 87.8126 101.627C87.9273 101.326 87.8451 100.934 87.8374 100.617C87.8298 100.291 87.8288 99.9643 87.8355 99.6384C87.8489 98.9884 87.9225 98.3355 87.9206 97.6865C87.7313 97.7955 87.5421 97.9035 87.3519 98.0125C87.5918 98.1319 87.7715 98.3805 87.9349 98.5898C88.1041 98.8058 88.2656 99.0276 88.4253 99.2512C88.7512 99.7091 89.082 100.162 89.3888 100.632C89.5799 100.925 90.0234 100.954 90.2089 100.632C90.6543 99.8592 91.0414 99.0457 91.4544 98.2552C91.5738 98.0268 91.5127 97.7362 91.2833 97.6014C91.0672 97.4753 90.748 97.5422 90.6285 97.7725Z" fill="#4F0200"/>
<path opacity="0.61" d="M70.6608 115.993C70.0701 119.773 65.5623 122.209 60.5938 121.432C55.6253 120.655 52.0762 116.96 52.6669 113.179C53.2576 109.398 57.7654 106.963 62.7339 107.74C67.7024 108.518 71.2515 112.213 70.6608 115.993Z" fill="#FCA691"/>
<path opacity="0.61" d="M129.526 111.284C130.304 115.03 126.942 118.896 122.018 119.919C117.093 120.94 112.471 118.732 111.692 114.986C110.915 111.239 114.276 107.373 119.201 106.35C124.125 105.328 128.748 107.537 129.526 111.284Z" fill="#FCA691"/>
<path d="M103.067 74.3868C104.94 74.3314 106.825 74.5541 108.662 74.9278C109.574 75.1132 110.475 75.3541 111.361 75.6428C111.803 75.7871 112.243 75.941 112.678 76.1092C113.169 76.2995 113.604 76.5413 114.147 76.4734C114.722 76.4017 115.293 75.7843 114.882 75.1926C114.295 74.3486 113.129 74.079 112.188 73.7703C111.208 73.4491 110.204 73.1996 109.19 73.0113C107.151 72.6338 105.133 72.5927 103.067 72.7418C102.022 72.8154 101.997 74.4183 103.067 74.3868Z" fill="#4F0200"/>
<path d="M75.29 73.7828C73.2483 73.9271 71.2401 74.2215 69.2968 74.8772C68.3314 75.2022 67.3832 75.5874 66.4637 76.0252C65.6063 76.4333 64.3216 76.9017 63.881 77.7887C63.6019 78.3498 63.9355 79.0772 64.616 79.0695C65.5604 79.059 66.4168 78.323 67.2417 77.9082C68.0819 77.4857 68.9403 77.1101 69.8254 76.7946C71.5813 76.1676 73.4347 75.639 75.29 75.4287C75.7316 75.379 76.113 75.0865 76.113 74.6057C76.113 74.1842 75.7354 73.7512 75.29 73.7828Z" fill="#4F0200"/>
</svg>
