<svg width="181" height="180" viewBox="0 0 181 180" fill="none" xmlns="http://www.w3.org/2000/svg">
<path d="M27.3581 58.5154C23.9877 66.2173 21.1755 75.3566 19.7225 85.9982C19.7225 85.9982 3.58837 97.4455 10.4926 112.238C16.1619 124.385 32.7664 123.979 32.7664 123.979C32.7664 123.979 40.4612 143.819 59.4945 145.844C59.4945 145.844 96.4753 147.545 117.552 146.272C138.059 145.034 146.563 122.359 146.563 122.359C146.563 122.359 165.824 126.256 166.874 101.048C167.542 85.0397 154.182 73.4538 154.182 73.4538C154.182 73.4538 153.003 32.7997 123.813 20.7226C112.024 15.8448 85.5057 14.9024 69.382 17.7647C47.9953 21.5636 36.0661 38.6189 27.3581 58.5154Z" fill="#4D2A22"/>
<path d="M90.5087 180C105.357 180 119.352 176.383 131.697 170.016C130.827 166.239 128.247 156.435 123.732 150.469C116.128 140.423 73.9387 137.431 64.162 148.835C59.0816 154.761 55.3088 167.244 53.9457 172.237C65.1208 177.212 77.4859 180 90.5087 180Z" fill="#38AA6F"/>
<path d="M75.5398 143.101C70.5444 144.287 66.4552 146.16 64.162 148.835C59.0816 154.761 55.3097 167.244 53.9457 172.237C60.1684 175.007 66.7706 177.07 73.6395 178.38C70.8206 165.608 73.7733 150.308 75.5398 143.101Z" fill="#E55041"/>
<path d="M110.134 177.835C117.726 176.14 124.958 173.491 131.697 170.016C130.827 166.239 128.248 156.435 123.732 150.469C121.316 147.277 115.403 144.801 108.152 143.269C109.897 150.436 112.732 165.271 110.134 177.835Z" fill="#E55041"/>
<path d="M93.9231 149.065C93.5818 148.952 87.8131 157.39 85.0841 155.685C82.3551 153.979 78.0518 144.679 79.9855 142.859C81.9193 141.039 105.479 141.214 105.89 143.681C106.21 145.601 104.16 157.158 101.202 156.589C98.2455 156.021 93.9231 149.065 93.9231 149.065Z" fill="#F9F1E4"/>
<path d="M63.1412 150.141C62.8745 150.509 62.6116 150.89 62.3535 151.288C62.3124 151.351 62.2723 151.418 62.2321 151.482C61.9999 151.846 61.7714 152.222 61.5467 152.607C61.4961 152.694 61.4454 152.779 61.3948 152.866C61.1501 153.293 60.9102 153.732 60.6741 154.179C60.6205 154.281 60.567 154.385 60.5135 154.489C60.3012 154.899 60.0919 155.315 59.8874 155.738C59.8549 155.805 59.8214 155.871 59.7899 155.938C59.5662 156.405 59.3482 156.88 59.1341 157.357C59.0787 157.48 59.0242 157.604 58.9688 157.729C58.7575 158.207 58.5501 158.688 58.3494 159.171C58.3283 159.222 58.3073 159.274 58.2863 159.325C58.0999 159.777 57.9183 160.23 57.7405 160.682C57.6936 160.802 57.6449 160.923 57.599 161.044C57.4135 161.522 57.2329 161.999 57.0589 162.471C57.0226 162.569 56.9882 162.666 56.9529 162.763C56.799 163.185 56.6489 163.603 56.5036 164.017C56.4711 164.109 56.4386 164.2 56.4071 164.292C56.2455 164.758 56.0897 165.214 55.9396 165.664C55.9043 165.77 55.8698 165.874 55.8354 165.979C55.693 166.411 55.5534 166.836 55.4225 167.248C55.4148 167.273 55.4062 167.299 55.3986 167.323C55.2581 167.765 55.1262 168.191 54.999 168.606C54.9742 168.688 54.9484 168.772 54.9235 168.853C54.7993 169.261 54.6807 169.658 54.5708 170.033C54.5679 170.042 54.566 170.05 54.5632 170.059C54.4475 170.454 54.3404 170.826 54.241 171.176C54.2353 171.197 54.2296 171.218 54.2229 171.238C54.1215 171.596 54.0288 171.93 53.9457 172.234C58.7241 174.361 63.7309 176.061 68.9022 177.341C69.0255 163.143 66.7697 152.54 64.9659 148.013C64.683 148.279 64.4048 148.547 64.162 148.831C63.8781 149.163 63.6 149.52 63.3247 149.89C63.2635 149.976 63.2023 150.057 63.1412 150.141Z" fill="#CA2F16"/>
<path d="M131.302 168.382C131.296 168.359 131.29 168.337 131.284 168.314C131.21 168.018 131.128 167.705 131.041 167.379C131.028 167.332 131.015 167.284 131.002 167.237C130.916 166.915 130.826 166.582 130.728 166.236C130.724 166.224 130.721 166.211 130.718 166.199C130.621 165.859 130.519 165.504 130.412 165.144C130.387 165.06 130.362 164.975 130.336 164.89C130.228 164.529 130.115 164.161 129.997 163.785C129.981 163.734 129.963 163.682 129.948 163.632C129.841 163.295 129.729 162.952 129.614 162.606C129.582 162.512 129.551 162.418 129.519 162.322C129.39 161.941 129.256 161.555 129.116 161.166C129.085 161.077 129.051 160.987 129.019 160.898C128.891 160.544 128.758 160.188 128.621 159.83C128.595 159.762 128.571 159.694 128.544 159.626C128.391 159.23 128.231 158.832 128.068 158.435C128.025 158.331 127.982 158.227 127.939 158.123C127.77 157.718 127.596 157.314 127.415 156.911C127.399 156.874 127.381 156.838 127.363 156.8C127.192 156.422 127.015 156.047 126.835 155.675C126.791 155.585 126.748 155.494 126.703 155.404C126.51 155.012 126.311 154.624 126.106 154.242C126.067 154.169 126.027 154.099 125.988 154.026C125.799 153.679 125.606 153.336 125.408 153.001C125.371 152.94 125.337 152.877 125.301 152.817C125.08 152.449 124.853 152.09 124.621 151.738C124.57 151.663 124.52 151.587 124.469 151.513C124.228 151.155 123.982 150.804 123.729 150.47C123.727 150.467 123.724 150.464 123.722 150.461C123.467 150.127 123.172 149.802 122.843 149.484C122.781 149.424 122.706 149.367 122.641 149.307C122.35 149.039 122.044 148.776 121.702 148.52C121.652 148.483 121.596 148.447 121.545 148.41C121.162 148.13 120.756 147.857 120.318 147.592C120.299 147.581 120.279 147.57 120.26 147.559C119.782 147.273 119.275 146.995 118.739 146.727C115.881 153.652 116.441 166.291 117.683 175.8C122.544 174.257 127.229 172.32 131.694 170.016C131.591 169.555 131.459 169.003 131.302 168.382Z" fill="#CA2F16"/>
<path d="M96.8883 135.76L97.6539 145.279L93.7291 149L89.8568 145.464L89.4 135.667L96.8883 135.76Z" fill="#FDC59D"/>
<path d="M96.8883 135.76L89.4 135.667L89.7058 142.216L97.4293 142.487L96.8883 135.76Z" fill="#EEA47D"/>
<path d="M155.578 101.142C155.258 110.272 148.213 117.435 139.843 117.141C131.473 116.848 124.947 109.209 125.267 100.079C125.587 90.9496 132.632 83.7867 141.003 84.0801C149.372 84.3745 155.898 92.0124 155.578 101.142Z" fill="#FDC59D"/>
<path d="M152.473 100.82C152.285 106.204 148.131 110.427 143.195 110.254C138.26 110.081 134.412 105.577 134.601 100.194C134.79 94.8107 138.944 90.5875 143.879 90.7605C148.814 90.9335 152.662 95.4377 152.473 100.82Z" fill="#EEA47D"/>
<path d="M55.0515 96.1362C54.7313 105.266 47.6865 112.429 39.316 112.135C30.9463 111.842 24.4206 104.203 24.7399 95.0735C25.0601 85.9447 32.1049 78.7808 40.4755 79.0752C48.846 79.3686 55.3727 87.0065 55.0515 96.1362Z" fill="#FDC59D"/>
<path d="M48.5487 95.7731C48.3595 101.157 44.2062 105.38 39.271 105.207C34.3359 105.034 30.4885 100.53 30.6768 95.1471C30.8651 89.7647 35.0193 85.5405 39.9545 85.7135C44.8897 85.8865 48.737 90.3907 48.5487 95.7731Z" fill="#EEA47D"/>
<path d="M100.987 48.1891L83.6599 47.5823C43.1367 50.3289 42.6492 68.0082 41.8673 90.3045L41.6331 96.9686C40.8512 119.264 58.2949 137.972 80.5944 138.753L97.9215 139.36C120.221 140.142 138.932 122.702 139.714 100.406L139.947 93.7422C140.73 71.4459 146.378 49.2853 100.987 48.1891Z" fill="#FDC59D"/>
<path d="M41.1216 84.4127L47.4342 86.7637" stroke="#4D2A22" stroke-width="2" stroke-miterlimit="10"/>
<path d="M131.85 85.6504L139.773 81.1949" stroke="#4D2A22" stroke-width="2" stroke-miterlimit="10"/>
<path d="M105.045 74.7946C106.918 74.7392 108.803 74.9618 110.639 75.3355C111.552 75.5209 112.453 75.7617 113.339 76.0494C113.782 76.1937 114.221 76.3476 114.656 76.5158C115.147 76.706 115.582 76.9477 116.125 76.8799C116.7 76.8082 117.271 76.1908 116.86 75.5993C116.273 74.7554 115.107 74.4859 114.166 74.1772C113.186 73.8561 112.182 73.6067 111.168 73.4184C109.129 73.0409 107.11 72.9998 105.045 73.1489C104 73.2234 103.975 74.8261 105.045 74.7946Z" fill="#4F0200"/>
<path d="M75.9593 74.4593C73.8946 74.2376 71.8777 74.2156 69.8226 74.5214C68.818 74.6715 67.8201 74.8817 66.8442 75.1617C65.8634 75.4427 64.7145 75.673 64.0788 76.5169C63.7682 76.9298 64.0817 77.6847 64.5873 77.7669C65.5489 77.9227 66.4732 77.398 67.3861 77.1285C68.3276 76.8495 69.2826 76.622 70.2509 76.4567C72.1253 76.1356 74.0609 75.9827 75.9593 76.1059C76.4067 76.1346 76.7785 75.7065 76.7823 75.2831C76.7881 74.7986 76.4 74.5071 75.9593 74.4593Z" fill="#4F0200"/>
<path d="M82.662 102.917C86.2274 107.592 93.4117 107.312 96.9771 102.774C97.283 102.385 96.7353 101.831 96.4275 102.225C94.8465 104.247 92.43 105.541 89.8472 105.614C87.276 105.686 84.763 104.497 82.9899 102.664C82.8302 102.498 82.5157 102.725 82.662 102.917Z" fill="#4F0200"/>
<path d="M86.9471 108.841C87.9594 109.291 89.0941 109.53 90.2038 109.428C90.7563 109.378 91.3012 109.269 91.825 109.083C92.0764 108.994 92.323 108.891 92.5629 108.774C92.8047 108.658 93.1154 108.545 93.1852 108.261C93.2186 108.126 93.1431 107.982 93.0055 107.944C92.755 107.874 92.5696 108.023 92.3507 108.128C92.1203 108.238 91.8833 108.331 91.6405 108.409C91.1607 108.564 90.6607 108.669 90.1579 108.709C89.1323 108.791 88.1353 108.684 87.1728 108.308C86.8669 108.191 86.646 108.708 86.9471 108.841Z" fill="#4F0200"/>
<path d="M96.0795 102.677C96.0996 102.666 96.1197 102.656 96.1398 102.646C96.1703 102.628 96.0729 102.67 96.1188 102.654C96.1283 102.651 96.1379 102.647 96.1465 102.644C96.1895 102.629 96.2344 102.624 96.2774 102.611C96.1847 102.636 96.2478 102.615 96.2803 102.613C96.3032 102.612 96.3252 102.611 96.3482 102.612C96.3606 102.612 96.3739 102.615 96.3864 102.614C96.4179 102.612 96.3033 102.599 96.3568 102.61C96.3788 102.615 96.4007 102.619 96.4227 102.625C96.4447 102.63 96.4667 102.637 96.4877 102.644C96.504 102.648 96.5785 102.679 96.5193 102.654C96.46 102.629 96.5336 102.662 96.5479 102.669C96.568 102.68 96.5871 102.691 96.6063 102.704C96.6139 102.709 96.6636 102.737 96.6626 102.742C96.6626 102.744 96.5919 102.684 96.6273 102.715C96.6368 102.724 96.6464 102.732 96.655 102.74C96.6903 102.773 96.7219 102.808 96.7515 102.845C96.7324 102.82 96.7133 102.796 96.6942 102.771C96.7439 102.838 96.7764 102.912 96.8357 102.972C96.9485 103.087 97.1539 103.121 97.2925 103.032C97.4302 102.943 97.5172 102.769 97.4656 102.605C97.4073 102.419 97.2314 102.266 97.0679 102.169C96.9465 102.096 96.807 102.043 96.6674 102.021C96.3682 101.972 96.0442 102.004 95.7889 102.179C95.6656 102.264 95.5978 102.435 95.6857 102.573C95.7708 102.706 95.94 102.757 96.0795 102.677Z" fill="#4F0200"/>
<path d="M100.668 117.492C101.278 117.492 101.28 116.544 100.668 116.544C100.057 116.544 100.056 117.492 100.668 117.492Z" fill="#4F0200"/>
<path d="M143.703 116.054C146.077 116.054 148.001 114.13 148.001 111.757C148.001 109.384 146.077 107.46 143.703 107.46C141.33 107.46 139.405 109.384 139.405 111.757C139.405 114.13 141.33 116.054 143.703 116.054Z" fill="#CA2F16"/>
<path d="M142.116 112.578C142.116 112.578 142.709 110.854 144.217 110.1C144.217 110.1 145.294 111.393 145.619 113.009C145.619 113.009 144.056 113.871 142.116 112.578Z" fill="#A90D00"/>
<path d="M143.116 111.577C143.116 111.577 143.591 111.102 144.54 111.275C144.54 111.275 144.54 112.397 144.022 112.656C144.022 112.656 143.203 112.44 143.116 111.577Z" fill="#7C0E09"/>
<path d="M141.896 109.711C141.896 109.711 144.357 107.656 146.392 110.314C146.392 110.314 144.627 109.247 141.896 109.711Z" fill="#A90D00"/>
<path d="M147.001 112.311C147.001 112.311 147.735 115.806 143.073 114.684C143.073 114.684 145.447 114.468 147.001 112.311Z" fill="#A90D00"/>
<path d="M141.131 110.368C141.131 110.368 139.447 112.569 142.382 114.209C142.382 114.209 141.218 111.447 141.131 110.368Z" fill="#A90D00"/>
<path d="M41.05 107.899C41.05 110.272 39.1258 112.196 36.7524 112.196C34.3789 112.196 32.4548 110.272 32.4548 107.899C32.4548 105.526 34.3789 103.602 36.7524 103.602C39.1258 103.602 41.05 105.526 41.05 107.899Z" fill="#CA2F16"/>
<path d="M35.1656 108.72C35.1656 108.72 35.7582 106.995 37.2666 106.241C37.2666 106.241 38.3439 107.534 38.6679 109.151C38.6679 109.151 37.1051 110.013 35.1656 108.72Z" fill="#A90D00"/>
<path d="M36.1654 107.719C36.1654 107.719 36.6405 107.244 37.5896 107.417C37.5896 107.417 37.5897 108.539 37.0716 108.798C37.0716 108.798 36.2524 108.582 36.1654 107.719Z" fill="#7C0E09"/>
<path d="M34.9457 105.853C34.9457 105.853 37.4062 103.798 39.4412 106.456C39.4412 106.456 37.6767 105.388 34.9457 105.853Z" fill="#A90D00"/>
<path d="M40.0501 108.452C40.0501 108.452 40.7842 111.947 36.1224 110.825C36.1224 110.825 38.4959 110.61 40.0501 108.452Z" fill="#A90D00"/>
<path d="M34.1801 106.51C34.1801 106.51 32.4968 108.711 35.4313 110.35C35.4313 110.35 34.2671 107.589 34.1801 106.51Z" fill="#A90D00"/>
<path d="M120.662 24.121C80.5284 15.4079 30.5344 18.8475 33.9736 80.5259C33.9736 80.5259 36.7103 83.4694 39.0703 88.7305C40.0272 90.8626 43.1567 90.4459 43.4692 88.1303C44.168 82.9505 51.6611 63.7631 53.2249 58.1101C58.3139 58.8546 63.403 59.3563 68.4041 59.6813C64.3082 62.0676 59.7793 63.9781 55.3269 64.4091C55.3269 64.4091 82.9478 74.1132 95.399 60.3312C95.399 60.3312 87.0207 73.2273 67.0105 72.3375C67.0105 72.3375 97.6529 87.8369 124.482 57.4192C124.552 57.4115 124.609 57.4058 124.677 57.3982C124.726 59.126 125.463 72.9616 136.329 81.2197C137.753 91.0165 138.339 100.017 139.469 100.017C141.783 100.017 140.157 84.8838 149.297 86.6767C149.297 86.6767 158.893 32.4221 120.662 24.121Z" fill="#4D2A22"/>
<path d="M70.1908 36.5546C73.2601 38.7212 67.1215 43.234 64.0521 42.1512C60.9819 41.0674 67.1215 34.3881 70.1908 36.5546Z" fill="#7C5850"/>
<path d="M67.2016 28.1512C70.3713 32.0409 61.345 39.0633 56.5542 36.4017C51.7624 33.7401 63.9354 24.1421 67.2016 28.1512Z" fill="#7C5850"/>
<path d="M109.023 107.684C114.634 107.677 119.176 103.123 119.17 97.5143L119.163 92.1366C119.156 86.5267 114.602 81.9853 108.991 81.992C103.381 81.9986 98.8373 86.5525 98.8449 92.1624L98.8516 97.5401C98.8574 103.149 103.412 107.691 109.023 107.684Z" fill="#F7FFFA"/>
<path d="M98.8439 92.1615C98.8401 89.1262 100.175 86.4072 102.284 84.5436C103.086 84.2521 103.932 84.0887 104.81 84.0878C109.76 84.0811 113.779 89.0258 113.787 95.1298C113.795 101.235 109.788 106.188 104.837 106.195C104.388 106.196 103.95 106.142 103.518 106.064C100.716 104.259 98.8544 101.119 98.8497 97.5391L98.8439 92.1615Z" fill="#4D2A22"/>
<path d="M71.1503 107.682C65.5403 107.761 60.9282 103.278 60.8489 97.6691L60.7734 92.2924C60.694 86.6834 65.178 82.0722 70.788 81.9929C76.3981 81.9135 81.0111 86.3967 81.0895 92.0056L81.165 97.3824C81.2453 102.992 76.7613 107.603 71.1503 107.682Z" fill="#F7FFFA"/>
<path d="M81.0905 92.0056C81.0475 88.9703 79.671 86.2724 77.5337 84.4413C76.7279 84.1623 75.8791 84.0122 75.0016 84.0246C70.0521 84.0944 66.1081 89.0994 66.1941 95.2034C66.2802 101.307 70.3627 106.2 75.3132 106.13C75.7625 106.124 76.1993 106.064 76.6304 105.979C79.4043 104.13 81.2176 100.963 81.1669 97.3833L81.0905 92.0056Z" fill="#4D2A22"/>
<path d="M85.8058 92.9929C85.8058 103.885 76.9745 112.715 66.0804 112.715C55.1864 112.715 46.355 103.885 46.355 92.9929C46.355 82.1009 54.6463 77.8634 65.5404 77.8634C76.4345 77.8634 85.8058 82.1009 85.8058 92.9929Z" stroke="#4D2A22" stroke-width="2" stroke-miterlimit="10"/>
<path d="M93.6822 92.9929C93.6822 103.885 102.513 112.715 113.408 112.715C124.302 112.715 133.133 103.885 133.133 92.9929C133.133 82.1009 124.842 77.8634 113.948 77.8634C103.054 77.8634 93.6822 82.1009 93.6822 92.9929Z" stroke="#4D2A22" stroke-width="2" stroke-miterlimit="10"/>
<path d="M85.3107 96.7879C85.3107 96.7879 88.9 94.1894 94.3466 96.9112" stroke="#4D2A22" stroke-width="1.5" stroke-miterlimit="10"/>
<path d="M90.6339 96.5435C90.2209 97.3348 89.7736 98.1165 89.3941 98.9231C89.6426 98.8906 89.8912 98.8591 90.1397 98.8276C89.787 98.3774 89.4247 97.9292 89.0271 97.5173C88.8321 97.3147 88.6323 97.1159 88.4316 96.92C88.2309 96.7231 87.9928 96.5243 87.8743 96.2673C87.7376 95.9691 87.2549 96.058 87.1842 96.3571C87.101 96.705 87.0752 97.0758 87.036 97.4313C87.0006 97.7562 86.9834 98.0821 86.971 98.409C86.9595 98.7349 86.9547 99.0608 86.9566 99.3876C86.9595 99.747 86.9194 100.166 87.0876 100.491C87.2587 100.825 87.7051 100.692 87.8179 100.396C87.9326 100.096 87.8504 99.703 87.8427 99.3867C87.8351 99.0608 87.8341 98.7339 87.8408 98.408C87.8542 97.7581 87.9278 97.1054 87.9249 96.4565C87.7357 96.5654 87.5465 96.6744 87.3562 96.7824C87.5962 96.9018 87.7758 97.1503 87.9393 97.3596C88.1085 97.5756 88.27 97.7973 88.4297 98.021C88.7556 98.4787 89.0863 98.9317 89.3932 99.4019C89.5844 99.6944 90.0279 99.723 90.2133 99.4019C90.6588 98.6288 91.0449 97.8155 91.4588 97.0251C91.5783 96.7967 91.5171 96.5062 91.2877 96.3714C91.0726 96.2463 90.7534 96.3141 90.6339 96.5435Z" fill="#4F0200"/>
<path opacity="0.61" d="M70.6648 116.004C70.074 119.784 65.5662 122.219 60.5975 121.442C55.6289 120.665 52.0798 116.971 52.6705 113.191C53.2612 109.41 57.7691 106.976 62.7377 107.753C67.7073 108.531 71.2564 112.224 70.6648 116.004Z" fill="#FCA691"/>
<path opacity="0.61" d="M129.531 111.295C130.309 115.042 126.948 118.907 122.023 119.929C117.098 120.951 112.476 118.743 111.698 114.997C110.92 111.25 114.281 107.386 119.206 106.363C124.132 105.341 128.753 107.549 129.531 111.295Z" fill="#FCA691"/>
</svg>
